<svg width="17" height="16" viewBox="0 0 17 16" fill="none" xmlns="http://www.w3.org/2000/svg">
<g id="Pdf">
<path id="Vector" d="M8.4996 6.90469L8.7925 6.39737C8.88063 6.24475 8.82185 6.11 8.7925 6.05915C8.76316 6.00831 8.67585 5.89003 8.4996 5.89003C8.32335 5.89003 8.23603 6.00828 8.20669 6.05915C8.17735 6.11 8.11857 6.24472 8.20669 6.39737L8.4996 6.90469Z" fill="#7E8799"/>
<path id="Vector_2" d="M5.29458 11.1027C5.26524 11.1535 5.20646 11.2882 5.29458 11.4409C5.38268 11.5935 5.52874 11.61 5.58746 11.61C5.64618 11.61 5.79224 11.5935 5.88036 11.4408L6.17327 10.9336H5.58746C5.41124 10.9336 5.32396 11.0518 5.29458 11.1027Z" fill="#7E8799"/>
<path id="Vector_3" d="M7.79688 9.99606H9.20144L8.49916 8.77969L7.79688 9.99606Z" fill="#7E8799"/>
<path id="Vector_4" d="M10.5513 4.55469C10.3389 4.55469 10.1667 4.37105 10.1667 4.14453V1H4.65385C4.01762 1 3.5 1.55199 3.5 2.23047V13.7695C3.5 14.448 4.01762 15 4.65385 15H12.3462C12.9824 15 13.5 14.448 13.5 13.7695V4.55469H10.5513ZM11.7957 11.4209C11.6065 11.7704 11.2676 11.979 10.8892 11.979C10.5108 11.979 10.1719 11.7704 9.98272 11.4209L9.52033 10.5669H7.47967L7.01728 11.4209C6.82808 11.7704 6.48918 11.979 6.11077 11.979H6.11074C5.73233 11.979 5.39346 11.7704 5.20428 11.4209C5.01508 11.0714 5.01505 10.6541 5.20428 10.3047C5.39349 9.95519 5.73236 9.74655 6.11077 9.74655H7.03554L8.05587 7.86191L7.59349 7.00786C7.40428 6.65838 7.40426 6.24109 7.59349 5.89161C7.78269 5.54213 8.12156 5.33347 8.5 5.33347C8.87844 5.33347 9.21731 5.5421 9.40651 5.89161C9.59574 6.24109 9.59572 6.65838 9.40651 7.00786L8.9441 7.86191L9.96444 9.74655H10.8892C11.2676 9.74655 11.6065 9.95519 11.7957 10.3047C11.9849 10.6541 11.9849 11.0714 11.7957 11.4209Z" fill="#7E8799"/>
<path id="Vector_5" d="M11.412 10.9336H10.8262L11.1191 11.4409C11.2072 11.5935 11.3533 11.61 11.412 11.61C11.4707 11.61 11.6168 11.5935 11.7049 11.4409C11.793 11.2882 11.7342 11.1535 11.7049 11.1027C11.6755 11.0518 11.5882 10.9336 11.412 10.9336Z" fill="#7E8799"/>
<path id="Vector_6" d="M10.5 2V4H13.5L10.5 2Z" fill="#7E8799"/>
</g>
</svg>
