<svg width="395" height="248" viewBox="0 0 395 248" fill="none" xmlns="http://www.w3.org/2000/svg">
<g clip-path="url(#clip0_4721_63277)">
<path d="M264.072 239.035C263.539 237.299 262.324 235.674 260.601 235.116C258.878 234.558 256.683 235.401 256.15 237.137C254.563 235.811 252.121 236.865 250.844 238.489C248.774 241.13 250.373 245.445 250.72 245.718C251.092 246.016 252.096 245.966 252.096 245.966L267.543 245.879C267.543 245.879 270.382 245.669 271.684 245.148C274.312 244.094 276.109 239.568 274.411 237.299C273.258 235.749 270.977 235.426 269.142 236.009C267.307 236.592 265.522 237.745 264.072 239.022" fill="#6CDD6C"/>
<path d="M251.873 246.487C251.476 246.487 250.782 246.438 250.385 246.115C249.778 245.619 248.241 240.969 250.435 238.167C251.352 236.989 252.741 236.17 254.043 236.034C254.724 235.96 255.357 236.071 255.915 236.369C256.249 235.774 256.77 235.278 257.439 234.93C258.456 234.397 259.696 234.286 260.749 234.633C262.287 235.129 263.576 236.431 264.295 238.167C265.795 236.952 267.444 236.022 268.981 235.526C270.828 234.93 273.444 235.141 274.82 237.001C275.613 238.068 275.799 239.642 275.328 241.329C274.758 243.338 273.407 245.024 271.882 245.632C270.518 246.177 267.704 246.388 267.592 246.4L252.109 246.487C252.109 246.487 251.985 246.487 251.886 246.487H251.873ZM254.439 237.038C254.34 237.038 254.253 237.038 254.154 237.051C253.138 237.162 251.985 237.844 251.241 238.799C249.431 241.118 250.782 244.974 251.08 245.359C251.154 245.408 251.662 245.483 252.071 245.458L267.543 245.371C267.543 245.371 270.283 245.16 271.498 244.677C272.725 244.193 273.865 242.73 274.349 241.044C274.733 239.667 274.609 238.415 274.014 237.609C272.936 236.158 270.816 236.022 269.303 236.505C267.692 237.014 265.956 238.055 264.406 239.419C264.282 239.531 264.097 239.58 263.935 239.531C263.762 239.481 263.638 239.357 263.588 239.184C263.043 237.398 261.865 236.059 260.452 235.6C259.646 235.34 258.704 235.426 257.923 235.836C257.278 236.17 256.832 236.679 256.646 237.286C256.596 237.448 256.472 237.572 256.299 237.621C256.138 237.671 255.964 237.621 255.828 237.522C255.443 237.2 254.985 237.038 254.452 237.038H254.439Z" fill="#50AA50"/>
<path d="M247.82 238.452C247.374 239.308 247.188 240.25 247.287 241.217C247.336 241.701 248.105 241.701 248.055 241.217C247.969 240.386 248.093 239.593 248.477 238.849C248.7 238.415 248.043 238.018 247.82 238.464V238.452Z" fill="#50AA50"/>
<path d="M245.588 239.059C245.352 239.927 245.328 240.796 245.526 241.664C245.637 242.147 246.369 241.936 246.27 241.465C246.109 240.721 246.133 240.002 246.332 239.27C246.468 238.799 245.724 238.588 245.588 239.072V239.059Z" fill="#50AA50"/>
<path d="M249.877 237.51C250.373 237.51 250.373 236.741 249.877 236.741C249.381 236.741 249.381 237.51 249.877 237.51Z" fill="#50AA50"/>
<path d="M252.047 241.205V241.887C252.047 242.383 252.815 242.383 252.815 241.887V241.205C252.815 240.709 252.047 240.709 252.047 241.205Z" fill="#50AA50"/>
<path d="M264.964 242.407V242.742C264.964 243.238 265.732 243.238 265.732 242.742V242.407C265.732 241.911 264.964 241.911 264.964 242.407Z" fill="#50AA50"/>
<path d="M263.551 241.478L263.724 241.651C264.071 241.998 264.617 241.453 264.27 241.106L264.096 240.932C263.749 240.585 263.204 241.13 263.551 241.478Z" fill="#50AA50"/>
<path d="M46.1088 224.614H20.1992C19.6413 224.614 19.1826 224.155 19.1826 223.597C19.1826 223.039 19.6413 222.58 20.1992 222.58H46.1088C46.6667 222.58 47.1254 223.039 47.1254 223.597C47.1254 224.155 46.6667 224.614 46.1088 224.614Z" fill="#405B91"/>
<path d="M274.2 134.751H273.456C273.456 134.143 272.96 133.635 272.353 133.635C271.746 133.635 271.25 134.131 271.25 134.751H270.506C270.506 133.734 271.336 132.903 272.353 132.903C273.37 132.903 274.2 133.734 274.2 134.751Z" fill="white"/>
<path d="M276.853 91.6608H276.109C276.109 91.0532 275.613 90.5448 275.006 90.5448C274.399 90.5448 273.89 91.0408 273.89 91.6608H273.146C273.146 90.644 273.977 89.8132 274.994 89.8132C276.01 89.8132 276.841 90.644 276.841 91.6608H276.853Z" fill="white"/>
<path d="M184.756 241.391H149.549L150.144 239.977C152.45 234.496 152.685 229.809 152.338 224.452L152.264 223.374L181.942 223.287V224.304C181.979 227.763 182.909 235.637 184.322 240.076L184.744 241.403L184.756 241.391ZM152.586 239.345H182.004C180.876 235.067 180.095 228.867 179.946 225.32L154.433 225.395C154.669 230.144 154.384 234.472 152.574 239.345H152.586Z" fill="#415B91"/>
<path d="M139.42 225.308C112.693 225.308 91.0351 225.159 90.0929 224.824C87.7995 224.006 84.8118 220.832 84.7746 218.587C84.6879 213.714 84.4771 207.08 84.2416 199.404C83.5101 176.241 82.506 144.522 83.8077 126.964C84.0432 123.764 86.6838 121.297 89.845 121.297H89.9442L244.051 121.52C247.311 121.582 249.927 124.211 250.001 127.509C250.125 132.643 250.286 137.876 250.46 143.183C251.167 165.416 251.898 188.418 249.431 210.168C249.332 211.023 249.295 211.978 249.245 212.958C249.034 217.521 248.774 223.2 242.898 224.353C240.022 224.924 182.996 225.308 139.433 225.308H139.42ZM89.845 122.934C87.5268 122.934 85.6052 124.744 85.4317 127.088C84.1424 144.559 85.1341 176.229 85.8656 199.355C86.1135 207.043 86.3243 213.689 86.411 218.562C86.4358 219.976 88.8036 222.63 90.6384 223.287C93.9236 223.956 238.794 223.46 242.563 222.754C247.175 221.836 247.385 217.285 247.584 212.883C247.633 211.866 247.671 210.874 247.782 209.982C250.237 188.356 249.505 165.416 248.799 143.232C248.625 137.913 248.464 132.668 248.34 127.534C248.29 125.116 246.381 123.194 244.013 123.144L89.9194 122.921H89.845V122.934Z" fill="#415B91"/>
<path fill-rule="evenodd" clip-rule="evenodd" d="M239.724 126.815L94.5306 126.629C91.9148 126.592 89.7329 128.377 89.5346 130.721C87.9106 150.164 90.1296 190.712 90.452 207.043C90.4891 208.63 93.0801 211.023 94.9521 211.606C97.1587 212.3 235.137 211.78 238.509 211.184C244.571 210.13 243.53 203.918 244.038 199.95C246.914 177.506 245.141 153.103 244.571 131.142C244.509 128.762 242.377 126.852 239.724 126.815Z" fill="#B6D0FB"/>
<path d="M197.352 246.983H136.941C134.549 246.983 133.284 245.098 133.284 243.238C133.284 241.378 134.536 239.481 136.941 239.481H197.352C199.744 239.481 201.009 241.366 201.009 243.226C201.009 245.086 199.757 246.983 197.352 246.983ZM136.941 241.118C135.354 241.118 134.933 242.445 134.933 243.226C134.933 244.007 135.354 245.334 136.941 245.334H197.352C198.938 245.334 199.36 244.007 199.36 243.226C199.36 242.445 198.938 241.118 197.352 241.118H136.941Z" fill="#415B91"/>
<path d="M94.8653 219.579C97.5802 219.579 97.5802 215.363 94.8653 215.363C92.1504 215.363 92.1504 219.579 94.8653 219.579Z" fill="#415B91"/>
<path d="M103.369 219.579C106.084 219.579 106.084 215.363 103.369 215.363C100.654 215.363 100.654 219.579 103.369 219.579Z" fill="#415B91"/>
<path d="M111.861 219.579C114.576 219.579 114.576 215.363 111.861 215.363C109.146 215.363 109.146 219.579 111.861 219.579Z" fill="#415B91"/>
<path d="M167.14 125.562C168.417 125.562 168.417 123.578 167.14 123.578C165.863 123.578 165.863 125.562 167.14 125.562Z" fill="#415B91"/>
<path d="M337.524 242.966H316.697L324.706 216.665H329.516L337.524 242.966Z" fill="#B6D0FB"/>
<path d="M339.247 242.966H314.986V245.966H339.247V242.966Z" fill="#B6D0FB"/>
<path d="M318.706 236.394L316.697 242.966H337.524L335.516 236.394H318.706Z" fill="#415B91"/>
<path d="M320.701 229.822H333.52L331.511 223.25H322.709L320.701 229.822Z" fill="#415B91"/>
<path d="M346.028 245.805H350.652V227.912H374.368V245.805H378.992V227.912H383.888V213.627H379.983V212.313H373.252V213.627H352.251V212.313H345.52V213.627H341.23V227.912H346.04V245.805H346.028ZM382.376 215.128V215.19L379.525 226.424H374.442L377.306 215.128H382.376ZM369.124 226.424H364.041L366.905 215.128H371.987L369.124 226.424ZM358.723 226.424H353.64L356.504 215.128H361.586L358.723 226.424ZM346.102 215.128H351.185L348.322 226.424H343.239L346.102 215.128Z" fill="#B6D0FB"/>
<path d="M118.841 70.928L120.23 69.5392C120.515 69.254 120.515 68.8076 120.23 68.5224L119.027 67.3196C118.754 67.0344 118.68 66.526 118.866 66.1788L119.845 63.798C119.957 63.4136 120.378 63.1036 120.763 63.1036H122.473C122.87 63.1036 123.192 62.7812 123.192 62.3844V60.4252C123.192 60.0284 122.87 59.706 122.473 59.706H120.763C120.366 59.706 119.957 59.396 119.845 59.0116L118.866 56.6308C118.68 56.2836 118.754 55.7752 119.027 55.49L120.23 54.2872C120.515 54.002 120.515 53.5556 120.23 53.2704L118.841 51.8816C118.556 51.5964 118.11 51.5964 117.825 51.8816L116.622 53.0844C116.337 53.3696 115.829 53.4316 115.482 53.2456L113.089 52.266C112.705 52.1544 112.395 51.7452 112.395 51.3484V49.6372C112.395 49.2404 112.072 48.918 111.676 48.918H109.717C109.32 48.918 108.998 49.2404 108.998 49.6372V51.3484C108.998 51.7452 108.688 52.1544 108.304 52.266L105.911 53.2456C105.564 53.4316 105.056 53.3572 104.771 53.0844L103.568 51.8816C103.295 51.5964 102.837 51.5964 102.552 51.8816L101.163 53.2704C100.878 53.5432 100.878 54.002 101.163 54.2872L102.366 55.49C102.651 55.7752 102.725 56.2836 102.527 56.6308L101.547 59.0116C101.436 59.396 101.014 59.706 100.63 59.706H98.9192C98.5225 59.706 98.2002 60.0284 98.2002 60.4252V62.3844C98.2002 62.7812 98.5225 63.1036 98.9192 63.1036H100.63C101.027 63.1036 101.436 63.4136 101.547 63.798L102.527 66.1788C102.713 66.526 102.638 67.0344 102.366 67.3196L101.163 68.5224C100.878 68.8076 100.878 69.254 101.163 69.5392L102.552 70.928C102.824 71.2132 103.283 71.2132 103.568 70.928L104.771 69.7252C105.043 69.44 105.564 69.378 105.911 69.564L108.291 70.5436C108.676 70.6552 108.986 71.0644 108.986 71.4612V73.1724C108.986 73.5692 109.308 73.8916 109.705 73.8916H111.663C112.06 73.8916 112.382 73.5692 112.382 73.1724V71.4612C112.382 71.0644 112.692 70.6552 113.077 70.5436L115.469 69.564C115.816 69.378 116.325 69.4524 116.61 69.7252L117.812 70.928C118.085 71.2132 118.544 71.2132 118.829 70.928H118.841ZM110.709 67.1336C107.548 67.1336 104.981 64.5668 104.981 61.4048C104.981 58.2428 107.548 55.676 110.709 55.676C113.87 55.676 116.436 58.2428 116.436 61.4048C116.436 64.5668 113.87 67.1336 110.709 67.1336Z" fill="#B6D0FB"/>
<path d="M132.081 76.3344L131.734 75.1688C131.659 74.9332 131.411 74.7968 131.176 74.8712L130.172 75.1812C129.936 75.2556 129.639 75.144 129.502 74.9332L128.486 73.7056C128.312 73.532 128.263 73.222 128.387 72.9988L128.882 72.0688C128.994 71.8456 128.92 71.5852 128.709 71.4612L127.643 70.8908C127.432 70.7792 127.159 70.8536 127.035 71.0768L126.539 72.0068C126.428 72.2176 126.13 72.354 125.895 72.3044L124.308 72.1432C124.06 72.1432 123.8 71.9572 123.738 71.7216L123.428 70.7048C123.353 70.4692 123.105 70.3328 122.87 70.4072L121.705 70.7544C121.469 70.8288 121.333 71.0768 121.407 71.3124L121.717 72.3168C121.791 72.5524 121.68 72.85 121.469 72.9864L120.229 74.0032C120.056 74.1768 119.746 74.2264 119.523 74.1024L118.593 73.6064C118.382 73.4948 118.109 73.5692 117.998 73.7924L117.428 74.8588C117.316 75.082 117.39 75.3424 117.614 75.4664L118.543 75.9748C118.767 76.0864 118.89 76.384 118.841 76.6196L118.68 78.2068C118.68 78.4548 118.494 78.7152 118.258 78.7772L117.242 79.0872C117.006 79.1616 116.87 79.4096 116.944 79.6452L117.291 80.8108C117.366 81.0464 117.614 81.1828 117.849 81.1084L118.866 80.7984C119.101 80.724 119.399 80.8356 119.535 81.0464L120.552 82.2864C120.725 82.46 120.775 82.77 120.663 82.9932L120.167 83.9232C120.056 84.134 120.13 84.4068 120.353 84.5308L121.419 85.1012C121.63 85.2128 121.903 85.1384 122.027 84.9152L122.523 83.9852C122.634 83.762 122.932 83.638 123.167 83.6876L124.754 83.8488C125.002 83.8488 125.263 84.0348 125.325 84.2704L125.634 85.2748C125.709 85.5104 125.957 85.6468 126.192 85.5724L127.358 85.2252C127.593 85.1508 127.73 84.9028 127.655 84.6672L127.345 83.6504C127.271 83.4148 127.382 83.1172 127.593 82.9808L128.833 81.964C129.006 81.7904 129.329 81.7408 129.539 81.8524L130.469 82.3484C130.692 82.4724 130.965 82.3856 131.077 82.1624L131.647 81.096C131.759 80.8852 131.684 80.6124 131.461 80.4884L130.531 79.9924C130.32 79.8808 130.184 79.5832 130.234 79.3476L130.395 77.748C130.395 77.5 130.581 77.2396 130.816 77.1776L131.833 76.8676C132.068 76.7932 132.205 76.5452 132.13 76.3096L132.081 76.3344ZM127.63 79.67C126.701 81.3936 124.556 82.0508 122.833 81.1208C121.11 80.1908 120.453 78.0456 121.382 76.322C122.312 74.586 124.457 73.9412 126.192 74.8712C127.915 75.8012 128.573 77.9464 127.643 79.67H127.63Z" fill="#B6D0FB"/>
<path d="M190.012 98.7536H157.941C157.383 98.7536 156.925 98.2948 156.925 97.7368C156.925 97.1788 157.383 96.72 157.941 96.72H190.012C190.57 96.72 191.029 97.1788 191.029 97.7368C191.029 98.2948 190.57 98.7536 190.012 98.7536Z" fill="#405B91"/>
<path d="M124.718 113.324H72.9111C72.3532 113.324 71.8945 112.865 71.8945 112.307C71.8945 111.749 72.3532 111.29 72.9111 111.29H124.718C125.276 111.29 125.735 111.749 125.735 112.307C125.735 112.865 125.276 113.324 124.718 113.324Z" fill="#405B91"/>
<path d="M373.115 140.926H321.309C320.751 140.926 320.292 140.467 320.292 139.909C320.292 139.351 320.751 138.892 321.309 138.892H373.115C373.673 138.892 374.132 139.351 374.132 139.909C374.132 140.467 373.673 140.926 373.115 140.926Z" fill="#405B91"/>
<path d="M393.483 248H1.51655C0.958687 248 0.5 247.541 0.5 246.983C0.5 246.425 0.958687 245.966 1.51655 245.966H393.483C394.041 245.966 394.5 246.425 394.5 246.983C394.5 247.541 394.041 248 393.483 248Z" fill="#405B91"/>
<path d="M249.703 85.932C247.509 85.932 245.439 86.7876 243.889 88.3376C241.236 90.9912 240.716 95.0956 242.612 98.3196L242.749 98.5428L234.418 106.876C234.418 106.876 234.009 107.272 234.009 107.818C234.009 108.24 234.22 108.661 234.641 109.083C235.087 109.529 235.558 109.752 236.029 109.752C236.6 109.752 237.009 109.418 237.009 109.418L245.315 101.097L245.55 101.234C246.802 101.978 248.253 102.362 249.716 102.362C251.91 102.362 253.98 101.506 255.53 99.9564C258.741 96.7448 258.741 91.5244 255.53 88.3128C253.98 86.7628 251.91 85.9072 249.716 85.9072L249.703 85.932ZM249.703 99.944C246.517 99.944 243.914 97.3524 243.914 94.1532C243.914 90.9664 246.505 88.3624 249.703 88.3624C252.889 88.3624 255.493 90.954 255.493 94.1532C255.493 97.3524 252.902 99.944 249.703 99.944Z" fill="#B6D0FB"/>
<path d="M246.653 95.3685H252.616V93.8433H246.653V95.3685Z" fill="#B6D0FB"/>
<path d="M96.8984 246.115C96.3405 246.115 95.8818 245.656 95.8818 245.098V166.495C95.8818 165.937 96.3405 165.478 96.8984 165.478C97.4562 165.478 97.9149 165.937 97.9149 166.495V245.098C97.9149 245.656 97.4562 246.115 96.8984 246.115Z" fill="#405B91"/>
<path d="M115.159 246.115C114.601 246.115 114.143 245.656 114.143 245.098V166.495C114.143 165.937 114.601 165.478 115.159 165.478C115.717 165.478 116.176 165.937 116.176 166.495V245.098C116.176 245.656 115.717 246.115 115.159 246.115Z" fill="#405B91"/>
<path d="M115.159 172.881H96.8984C96.3405 172.881 95.8818 172.422 95.8818 171.864C95.8818 171.306 96.3405 170.847 96.8984 170.847H115.159C115.717 170.847 116.176 171.306 116.176 171.864C116.176 172.422 115.717 172.881 115.159 172.881Z" fill="#405B91"/>
<path d="M115.159 181.859H96.8984C96.3405 181.859 95.8818 181.4 95.8818 180.842C95.8818 180.284 96.3405 179.825 96.8984 179.825H115.159C115.717 179.825 116.176 180.284 116.176 180.842C116.176 181.4 115.717 181.859 115.159 181.859Z" fill="#405B91"/>
<path d="M115.159 190.836H96.8984C96.3405 190.836 95.8818 190.377 95.8818 189.819C95.8818 189.261 96.3405 188.802 96.8984 188.802H115.159C115.717 188.802 116.176 189.261 116.176 189.819C116.176 190.377 115.717 190.836 115.159 190.836Z" fill="#405B91"/>
<path d="M115.159 199.814H96.8984C96.3405 199.814 95.8818 199.355 95.8818 198.797C95.8818 198.239 96.3405 197.78 96.8984 197.78H115.159C115.717 197.78 116.176 198.239 116.176 198.797C116.176 199.355 115.717 199.814 115.159 199.814Z" fill="#405B91"/>
<path d="M115.159 208.804H96.8984C96.3405 208.804 95.8818 208.345 95.8818 207.787C95.8818 207.229 96.3405 206.77 96.8984 206.77H115.159C115.717 206.77 116.176 207.229 116.176 207.787C116.176 208.345 115.717 208.804 115.159 208.804Z" fill="#405B91"/>
<path d="M115.159 217.781H96.8984C96.3405 217.781 95.8818 217.322 95.8818 216.764C95.8818 216.206 96.3405 215.748 96.8984 215.748H115.159C115.717 215.748 116.176 216.206 116.176 216.764C116.176 217.322 115.717 217.781 115.159 217.781Z" fill="#405B91"/>
<path d="M115.159 226.759H96.8984C96.3405 226.759 95.8818 226.3 95.8818 225.742C95.8818 225.184 96.3405 224.725 96.8984 224.725H115.159C115.717 224.725 116.176 225.184 116.176 225.742C116.176 226.3 115.717 226.759 115.159 226.759Z" fill="#405B91"/>
<path d="M115.159 235.736H96.8984C96.3405 235.736 95.8818 235.278 95.8818 234.72C95.8818 234.162 96.3405 233.703 96.8984 233.703H115.159C115.717 233.703 116.176 234.162 116.176 234.72C116.176 235.278 115.717 235.736 115.159 235.736Z" fill="#405B91"/>
<path d="M72.0302 170.302C71.4724 170.302 71.0137 169.843 71.0137 169.285V165.317C71.0137 164.759 71.4724 164.3 72.0302 164.3C72.5881 164.3 73.0468 164.759 73.0468 165.317V169.285C73.0468 169.843 72.5881 170.302 72.0302 170.302Z" fill="#405B91"/>
<path d="M74.0138 168.318H70.0468C69.489 168.318 69.0303 167.859 69.0303 167.301C69.0303 166.743 69.489 166.284 70.0468 166.284H74.0138C74.5717 166.284 75.0304 166.743 75.0304 167.301C75.0304 167.859 74.5717 168.318 74.0138 168.318Z" fill="#405B91"/>
<path d="M163.793 28.1604C163.235 28.1604 162.776 27.7016 162.776 27.1436V23.1756C162.776 22.6176 163.235 22.1588 163.793 22.1588C164.351 22.1588 164.809 22.6176 164.809 23.1756V27.1436C164.809 27.7016 164.351 28.1604 163.793 28.1604Z" fill="#405B91"/>
<path d="M165.777 26.1764H161.81C161.252 26.1764 160.793 25.7176 160.793 25.1596C160.793 24.6016 161.252 24.1428 161.81 24.1428H165.777C166.334 24.1428 166.793 24.6016 166.793 25.1596C166.793 25.7176 166.334 26.1764 165.777 26.1764Z" fill="#405B91"/>
<path d="M195.951 233.901C195.864 233.901 195.765 233.889 195.666 233.864L191.847 232.773C191.302 232.612 190.992 232.054 191.141 231.508C191.289 230.962 191.86 230.652 192.405 230.801L196.223 231.892C196.769 232.054 197.079 232.612 196.93 233.157C196.806 233.604 196.397 233.901 195.951 233.901Z" fill="#405B91"/>
<path d="M193.496 235.265C193.409 235.265 193.31 235.253 193.211 235.228C192.665 235.067 192.355 234.509 192.504 233.963L193.595 230.144C193.744 229.598 194.314 229.288 194.859 229.437C195.405 229.598 195.715 230.156 195.566 230.702L194.475 234.521C194.351 234.968 193.942 235.265 193.496 235.265Z" fill="#405B91"/>
<path d="M175.892 113.869C175.805 113.869 175.706 113.857 175.607 113.832L171.789 112.741C171.243 112.592 170.933 112.022 171.082 111.476C171.231 110.93 171.801 110.62 172.347 110.769L176.165 111.86C176.71 112.009 177.02 112.58 176.871 113.125C176.748 113.572 176.338 113.869 175.892 113.869Z" fill="#405B91"/>
<path d="M173.437 115.233C173.35 115.233 173.251 115.221 173.152 115.196C172.607 115.047 172.297 114.477 172.445 113.931L173.536 110.112C173.685 109.566 174.255 109.256 174.801 109.405C175.346 109.554 175.656 110.124 175.507 110.67L174.417 114.489C174.293 114.936 173.883 115.233 173.437 115.233Z" fill="#405B91"/>
<path d="M183.235 86.2856C188.769 80.7507 188.769 71.7767 183.235 66.2417C177.702 60.7067 168.73 60.7067 163.196 66.2417C157.663 71.7767 157.663 80.7507 163.196 86.2856C168.73 91.8206 177.702 91.8206 183.235 86.2856Z" fill="#B6D0FB"/>
<path d="M173.214 86.8868C179.082 86.8868 183.838 82.129 183.838 76.26C183.838 70.391 179.082 65.6332 173.214 65.6332C167.346 65.6332 162.59 70.391 162.59 76.26C162.59 82.129 167.346 86.8868 173.214 86.8868Z" fill="white"/>
<path d="M173.214 87.296C167.127 87.296 162.181 82.3484 162.181 76.26C162.181 70.1716 167.127 65.224 173.214 65.224C179.301 65.224 184.247 70.1716 184.247 76.26C184.247 82.3484 179.301 87.296 173.214 87.296ZM173.214 66.0548C167.586 66.0548 163.011 70.6304 163.011 76.26C163.011 81.8896 167.586 86.4652 173.214 86.4652C178.842 86.4652 183.417 81.8896 183.417 76.26C183.417 70.6304 178.842 66.0548 173.214 66.0548Z" fill="#405B91"/>
<path d="M173.215 76.6693C172.992 76.6693 172.806 76.4833 172.806 76.2601V70.8537C172.806 70.6305 172.992 70.4445 173.215 70.4445C173.438 70.4445 173.624 70.6305 173.624 70.8537V76.2601C173.624 76.4833 173.438 76.6693 173.215 76.6693Z" fill="#405B91"/>
<path d="M179.55 76.6692H173.215C172.992 76.6692 172.806 76.4832 172.806 76.26C172.806 76.0368 172.992 75.8508 173.215 75.8508H179.55C179.773 75.8508 179.959 76.0368 179.959 76.26C179.959 76.4832 179.773 76.6692 179.55 76.6692Z" fill="#405B91"/>
<path d="M173.623 66.836C173.623 67.0716 173.437 67.2576 173.202 67.2576C172.966 67.2576 172.78 67.0716 172.78 66.836C172.78 66.6004 172.966 66.4144 173.202 66.4144C173.437 66.4144 173.623 66.6004 173.623 66.836Z" fill="#405B91"/>
<path d="M180.169 69.8988C180.008 70.06 179.735 70.06 179.574 69.8988C179.413 69.7376 179.413 69.4648 179.574 69.3036C179.735 69.1424 180.008 69.1424 180.169 69.3036C180.33 69.4648 180.33 69.7376 180.169 69.8988Z" fill="#405B91"/>
<path d="M182.624 76.6816C182.388 76.6816 182.202 76.4956 182.202 76.26C182.202 76.0244 182.388 75.8384 182.624 75.8384C182.859 75.8384 183.045 76.0244 183.045 76.26C183.045 76.4956 182.859 76.6816 182.624 76.6816Z" fill="#405B91"/>
<path d="M179.574 83.2165C179.413 83.0553 179.413 82.7825 179.574 82.6213C179.735 82.4601 180.008 82.4601 180.169 82.6213C180.33 82.7825 180.33 83.0553 180.169 83.2165C180.008 83.3777 179.735 83.3777 179.574 83.2165Z" fill="#405B91"/>
<path d="M172.793 85.684C172.793 85.4484 172.979 85.2625 173.214 85.2625C173.45 85.2625 173.636 85.4484 173.636 85.684C173.636 85.9196 173.45 86.1057 173.214 86.1057C172.979 86.1057 172.793 85.9196 172.793 85.684Z" fill="#405B91"/>
<path d="M166.247 82.6336C166.408 82.4724 166.681 82.4724 166.842 82.6336C167.003 82.7948 167.003 83.0676 166.842 83.2288C166.681 83.39 166.408 83.39 166.247 83.2288C166.086 83.0676 166.086 82.7948 166.247 82.6336Z" fill="#405B91"/>
<path d="M163.793 76.6816C164.025 76.6816 164.214 76.4928 164.214 76.26C164.214 76.0271 164.025 75.8384 163.793 75.8384C163.56 75.8384 163.371 76.0271 163.371 76.26C163.371 76.4928 163.56 76.6816 163.793 76.6816Z" fill="#405B91"/>
<path d="M166.842 69.3036C167.003 69.4648 167.003 69.7376 166.842 69.8988C166.681 70.06 166.408 70.06 166.247 69.8988C166.086 69.7376 166.086 69.4648 166.247 69.3036C166.408 69.1424 166.681 69.1424 166.842 69.3036Z" fill="#405B91"/>
<path d="M193.942 70.8536H187.991C187.768 70.8536 187.582 70.6676 187.582 70.4444C187.582 70.2212 187.768 70.0352 187.991 70.0352H193.942C194.165 70.0352 194.351 70.2212 194.351 70.4444C194.351 70.6676 194.165 70.8536 193.942 70.8536Z" fill="#405B91"/>
<path d="M193.942 82.4971H187.991C187.768 82.4971 187.582 82.3111 187.582 82.0879C187.582 81.8647 187.768 81.6787 187.991 81.6787H193.942C194.165 81.6787 194.351 81.8647 194.351 82.0879C194.351 82.3111 194.165 82.4971 193.942 82.4971Z" fill="#405B91"/>
<path d="M201.343 76.6816H190.223C189.999 76.6816 189.813 76.4956 189.813 76.2724C189.813 76.0492 189.999 75.8632 190.223 75.8632H201.343C201.566 75.8632 201.752 76.0492 201.752 76.2724C201.752 76.4956 201.566 76.6816 201.343 76.6816Z" fill="#405B91"/>
<path d="M220.732 229.822H214.161V236.394H220.732V229.822Z" fill="white"/>
<path d="M221.253 236.902H213.653V229.301H221.253V236.902ZM214.682 235.885H220.236V230.33H214.682V235.885Z" fill="#415B91"/>
<path d="M229.063 231.26H223.112C222.889 231.26 222.703 231.074 222.703 230.851C222.703 230.628 222.889 230.442 223.112 230.442H229.063C229.286 230.442 229.472 230.628 229.472 230.851C229.472 231.074 229.286 231.26 229.063 231.26Z" fill="#405B91"/>
<path d="M231.294 235.774H223.248C222.938 235.774 222.69 235.588 222.69 235.365C222.69 235.141 222.938 234.955 223.248 234.955H231.294C231.604 234.955 231.852 235.141 231.852 235.365C231.852 235.588 231.604 235.774 231.294 235.774Z" fill="#405B91"/>
<path d="M234.232 233.393H223.112C222.889 233.393 222.703 233.207 222.703 232.984C222.703 232.76 222.889 232.574 223.112 232.574H234.232C234.455 232.574 234.641 232.76 234.641 232.984C234.641 233.207 234.455 233.393 234.232 233.393Z" fill="#405B91"/>
<path d="M69.8115 139.897H76.3818V133.325H69.8115V139.897Z" fill="white"/>
<path d="M76.9021 140.405H69.3027V132.804H76.9021V140.405ZM70.3317 139.388H75.8855V133.833H70.3317V139.388Z" fill="#415B91"/>
<path d="M61.4931 134.776H67.4436C67.6668 134.776 67.8527 134.59 67.8527 134.366C67.8527 134.143 67.6668 133.957 67.4436 133.957H61.4931C61.2699 133.957 61.084 134.143 61.084 134.366C61.084 134.59 61.2699 134.776 61.4931 134.776Z" fill="#405B91"/>
<path d="M59.261 139.277H67.3066C67.6165 139.277 67.8645 139.091 67.8645 138.868C67.8645 138.644 67.6165 138.458 67.3066 138.458H59.261C58.9511 138.458 58.7031 138.644 58.7031 138.868C58.7031 139.091 58.9511 139.277 59.261 139.277Z" fill="#405B91"/>
<path d="M56.3232 136.896H67.4432C67.6664 136.896 67.8523 136.71 67.8523 136.487C67.8523 136.264 67.6664 136.078 67.4432 136.078H56.3232C56.1 136.078 55.9141 136.264 55.9141 136.487C55.9141 136.71 56.1 136.896 56.3232 136.896Z" fill="#405B91"/>
<path d="M272.353 158.038H270.308V245.805H272.353V158.038Z" fill="#3F5B91"/>
<path d="M271.559 148.44H271.101C267.759 148.44 265.051 151.15 265.051 154.492V162.614C265.051 165.956 267.759 168.665 271.101 168.665H271.559C274.9 168.665 277.609 165.956 277.609 162.614V154.492C277.609 151.15 274.9 148.44 271.559 148.44Z" fill="#B6D0FB"/>
<path d="M279.543 162.787C280.262 162.899 280.981 163.023 281.7 163.134C282.184 163.209 282.395 162.477 281.899 162.39C281.18 162.279 280.461 162.155 279.742 162.043C279.258 161.969 279.048 162.7 279.543 162.787Z" fill="#3F5B91"/>
<path d="M279.482 158.1C280.039 158.001 280.61 157.988 281.168 158.038C281.663 158.088 281.651 157.319 281.168 157.269C280.523 157.207 279.903 157.244 279.271 157.356C278.787 157.443 278.998 158.174 279.469 158.1H279.482Z" fill="#3F5B91"/>
<path d="M279.245 153.847C279.791 153.624 280.349 153.413 280.894 153.19C281.341 153.016 281.155 152.272 280.696 152.446C280.15 152.669 279.593 152.88 279.047 153.103C278.601 153.276 278.787 154.02 279.245 153.847Z" fill="#3F5B91"/>
<path d="M260.477 163.494C261.047 163.42 261.592 163.283 262.125 163.097C262.584 162.936 262.386 162.204 261.927 162.353C261.382 162.539 260.836 162.663 260.278 162.75C259.795 162.812 259.993 163.556 260.477 163.494Z" fill="#3F5B91"/>
<path d="M259.485 158.05C260.192 158.075 260.873 158.174 261.555 158.373C262.026 158.509 262.237 157.765 261.754 157.629C261.01 157.418 260.254 157.306 259.472 157.282C258.977 157.269 258.977 158.038 259.472 158.05H259.485Z" fill="#3F5B91"/>
<path d="M260.154 151.751C260.7 151.925 261.257 152.098 261.803 152.284C262.274 152.433 262.472 151.702 262.001 151.54C261.456 151.367 260.898 151.193 260.352 151.007C259.881 150.858 259.683 151.59 260.154 151.751Z" fill="#3F5B91"/>
<path d="M266.576 246.996L267.927 235.265H274.56L276.097 246.822L266.576 246.996Z" fill="#405B91"/>
<path d="M79.3077 190.836C79.0102 188.976 77.6837 184.152 74.7828 185.677C70.0844 188.145 75.7498 197.507 70.0844 199.156C69.7869 195.424 68.9811 192.857 67.2951 193.006C63.8239 193.316 64.7413 201.401 64.6917 203.223C64.6297 205.034 64.5429 206.894 64.4686 208.766C60.3776 209.498 61.1834 198.834 58.704 197.358C54.8361 195.064 54.0179 200.173 54.1171 202.541C54.3031 206.559 55.3816 211.37 59.1503 213.503C60.39 214.21 62.5842 215.003 64.295 214.855C64.2826 218.066 64.419 221.265 64.9396 224.303C64.9396 224.341 65.0016 224.341 65.0016 224.303L67.2951 224.427C67.2951 224.427 67.2951 224.452 67.2951 224.465C67.2703 225.469 68.8447 225.469 68.8571 224.465C68.8819 222.53 70.072 213.007 70.2208 204.947C72.0555 205.22 74.3489 204.364 75.663 203.397C79.5681 200.533 80.0267 195.263 79.3077 190.836Z" fill="#6CDD6C"/>
<path d="M68.0635 225.655C67.8279 225.655 67.6048 225.593 67.4064 225.481C67.1585 225.333 66.9849 225.109 66.9106 224.837L65.2246 224.75L64.6047 224.775L64.5056 224.39C64.0593 221.799 63.8485 218.909 63.8485 215.313C61.9642 215.313 59.9063 214.445 58.9269 213.887C54.8979 211.606 53.8442 206.472 53.6706 202.566C53.5962 200.991 53.931 197.743 55.6913 196.689C56.5839 196.155 57.6624 196.255 58.9145 196.999C60.117 197.705 60.5757 199.9 61.1088 202.43C61.8278 205.865 62.4725 208.332 64.0469 208.369L64.0841 207.526C64.146 206.063 64.2204 204.625 64.2576 203.211C64.2576 202.938 64.2576 202.504 64.2328 201.983C64.1213 198.797 63.9229 192.882 67.2577 192.572C67.7783 192.522 68.2494 192.671 68.6461 193.018C69.5759 193.799 70.171 195.622 70.4685 198.549C72.576 197.606 72.4644 195.163 72.3404 192.361C72.2165 189.521 72.0801 186.595 74.5719 185.293C75.3777 184.871 76.1587 184.834 76.8653 185.194C78.948 186.235 79.6546 190.303 79.729 190.761C80.2745 194.159 80.51 200.371 75.9108 203.744C74.6339 204.687 72.4644 205.517 70.6297 205.418C70.5057 210.688 69.9726 216.491 69.6131 220.36C69.4271 222.307 69.2908 223.832 69.2784 224.465C69.2784 224.911 69.0552 225.283 68.6833 225.494C68.485 225.605 68.2742 225.655 68.0511 225.655H68.0635ZM65.3114 223.882L67.7412 224.018V224.44C67.7288 224.638 67.7908 224.7 67.8527 224.737C67.9767 224.812 68.1503 224.812 68.2742 224.737C68.3734 224.688 68.423 224.589 68.423 224.465C68.423 223.795 68.5718 222.332 68.7577 220.286C69.1296 216.305 69.6875 210.291 69.7867 204.935V204.439L70.2825 204.513C71.9685 204.761 74.1876 203.943 75.4025 203.05C79.6298 199.95 79.3943 194.109 78.8736 190.91C78.6505 189.509 77.8571 186.669 76.481 185.975C76.0223 185.752 75.5388 185.777 74.981 186.062C72.9727 187.116 73.0842 189.645 73.2082 192.324C73.3446 195.275 73.4933 198.611 70.2082 199.578L69.6999 199.727L69.6627 199.193C69.3652 195.473 68.6461 194.147 68.1007 193.688C67.8651 193.489 67.6296 193.415 67.3445 193.44C64.8155 193.663 65.0138 199.268 65.113 201.959C65.1378 202.504 65.1502 202.951 65.1378 203.248C65.0882 204.662 65.0262 206.113 64.9642 207.576L64.8899 209.151L64.5427 209.213C61.741 209.709 60.96 205.951 60.2658 202.616C59.8195 200.483 59.3608 198.263 58.4806 197.743C57.5385 197.185 56.7451 197.073 56.15 197.433C54.8483 198.214 54.4764 200.967 54.5508 202.529C54.712 206.212 55.6913 211.048 59.3608 213.131C60.6253 213.85 62.708 214.557 64.2576 214.433L64.7287 214.396V214.867C64.7039 218.451 64.8899 221.34 65.3114 223.894V223.882Z" fill="#50AA50"/>
<path d="M74.8079 245.991H58.196C57.3158 245.991 56.5968 245.408 56.4357 244.553L52.667 225.184L54.229 224.874L57.9977 244.243C58.0225 244.391 58.1464 244.391 58.196 244.391H74.8079C74.8079 244.391 74.9691 244.391 75.0063 244.243L78.7502 224.874L80.3122 225.171L76.5683 244.54C76.4072 245.408 75.6881 245.979 74.8079 245.979V245.991Z" fill="#415B91"/>
<path d="M52.8398 218.959H80.4106C80.8817 218.959 81.266 219.48 81.266 220.112V224.304C81.266 224.936 80.8817 225.457 80.4106 225.457H52.8398C52.3687 225.457 51.9844 224.936 51.9844 224.304V220.112C51.9844 219.48 52.3687 218.959 52.8398 218.959Z" fill="#B6D0FB"/>
<path d="M80.4109 225.891H52.8401C52.1334 225.891 51.5508 225.172 51.5508 224.304V220.112C51.5508 219.232 52.1334 218.525 52.8401 218.525H80.4109C81.1175 218.525 81.7002 219.244 81.7002 220.112V224.304C81.7002 225.184 81.1175 225.891 80.4109 225.891ZM52.8401 219.381C52.6417 219.381 52.4186 219.691 52.4186 220.1V224.291C52.4186 224.7 52.6417 225.01 52.8401 225.01H80.4109C80.6092 225.01 80.8324 224.7 80.8324 224.291V220.1C80.8324 219.691 80.6092 219.381 80.4109 219.381H52.8401Z" fill="#405B91"/>
<path d="M80.4107 225.829H52.8399C52.1705 225.829 51.625 225.147 51.625 224.316V220.125C51.625 219.281 52.1705 218.599 52.8399 218.599H80.4107C81.0802 218.599 81.6256 219.281 81.6256 220.125V224.316C81.6256 225.159 81.0802 225.829 80.4107 225.829ZM52.8399 219.319C52.6044 219.319 52.344 219.641 52.344 220.112V224.303C52.344 224.775 52.6044 225.097 52.8399 225.097H80.4107C80.6463 225.097 80.9066 224.775 80.9066 224.303V220.112C80.9066 219.641 80.6463 219.319 80.4107 219.319H52.8399Z" fill="#B6D0FB"/>
<path d="M80.411 226.263H52.8402C51.9352 226.263 51.1914 225.382 51.1914 224.303V220.112C51.1914 219.033 51.9352 218.153 52.8402 218.153H80.411C81.316 218.153 82.0598 219.033 82.0598 220.112V224.303C82.0598 225.382 81.316 226.263 80.411 226.263ZM52.8898 219.753C52.8898 219.753 52.7782 219.914 52.7782 220.112V224.303C52.7782 224.527 52.865 224.651 52.9022 224.675H80.411C80.411 224.675 80.473 224.527 80.473 224.303V220.112C80.473 219.889 80.3862 219.765 80.349 219.74H52.8898V219.753Z" fill="#405B91"/>
<path d="M55.8401 202.492C56.2988 202.554 56.7451 202.603 57.2038 202.665C57.6873 202.727 57.6873 201.959 57.2038 201.897C56.7451 201.835 56.2988 201.785 55.8401 201.723C55.3567 201.661 55.3567 202.43 55.8401 202.492Z" fill="#50AA50"/>
<path d="M57.8486 196.478V197.16C57.8486 197.656 58.6172 197.656 58.6172 197.16V196.478C58.6172 195.982 57.8486 195.982 57.8486 196.478Z" fill="#50AA50"/>
<path d="M60.4889 203.496C60.8236 203.31 61.1583 203.124 61.4807 202.938C61.9145 202.703 61.5302 202.033 61.0964 202.281C60.7616 202.467 60.4269 202.653 60.1046 202.839C59.6707 203.075 60.055 203.744 60.4889 203.496Z" fill="#50AA50"/>
<path d="M56.5594 212.3C56.9561 212.015 57.3528 211.742 57.7619 211.457C58.1586 211.172 57.7743 210.515 57.3776 210.8C56.9809 211.085 56.5842 211.358 56.1751 211.643C55.7784 211.928 56.1503 212.586 56.5594 212.3Z" fill="#50AA50"/>
<path d="M53.696 205.716C53.9811 205.828 54.2663 205.939 54.5514 206.051C55.0101 206.237 55.2084 205.493 54.7497 205.307C54.4646 205.195 54.1795 205.084 53.8944 204.972C53.4357 204.786 53.2373 205.53 53.696 205.716Z" fill="#50AA50"/>
<path d="M59.2491 209.275C59.4351 209.287 59.5342 209.374 59.6458 209.51C59.9557 209.895 60.5012 209.349 60.1913 208.965C59.9433 208.667 59.621 208.531 59.2491 208.506C58.7532 208.469 58.7656 209.238 59.2491 209.275Z" fill="#50AA50"/>
<path d="M60.9227 212.871C60.836 213.404 60.8979 213.863 61.1087 214.359C61.2946 214.805 61.9641 214.421 61.7657 213.974C61.6418 213.677 61.6046 213.379 61.6542 213.069C61.7285 212.585 60.9971 212.375 60.9103 212.871H60.9227Z" fill="#50AA50"/>
<path d="M64.9271 213.02L65.6089 213.206C66.08 213.33 66.2907 212.598 65.8073 212.462C65.5841 212.4 65.361 212.338 65.1254 212.276C64.6543 212.152 64.4436 212.883 64.9271 213.02Z" fill="#50AA50"/>
<path d="M67.3695 205.493C67.3323 205.927 67.4935 206.323 67.8282 206.609C68.2001 206.919 68.7456 206.385 68.3737 206.063C68.1753 205.902 68.1133 205.741 68.1381 205.493C68.1877 204.997 67.4191 205.009 67.3695 205.493Z" fill="#50AA50"/>
<path d="M66.4029 200.024C66.1798 200.322 66.1426 200.632 66.2046 201.004C66.2913 201.488 67.0228 201.289 66.9484 200.806C66.9236 200.657 66.9608 200.52 67.0724 200.421C67.3699 200.024 66.7004 199.64 66.4153 200.037L66.4029 200.024Z" fill="#50AA50"/>
<path d="M70.5928 202.256V202.938C70.5928 203.434 71.3614 203.434 71.3614 202.938V202.256C71.3614 201.76 70.5928 201.76 70.5928 202.256Z" fill="#50AA50"/>
<path d="M63.4765 201.053C63.65 201.165 63.8112 201.277 63.9848 201.388C64.3939 201.661 64.7782 201.004 64.3691 200.731C64.1955 200.619 64.0344 200.508 63.8608 200.396C63.4517 200.123 63.0674 200.781 63.4765 201.053Z" fill="#50AA50"/>
<path d="M64.7536 194.705C64.9024 194.878 64.9768 195.052 64.9892 195.288C65.0264 195.771 65.795 195.784 65.7578 195.288C65.7206 194.854 65.5842 194.506 65.2991 194.172C64.9768 193.8 64.4437 194.345 64.7536 194.717V194.705Z" fill="#50AA50"/>
<path d="M66.6875 192.398V193.415C66.6875 193.911 67.4561 193.911 67.4561 193.415V192.398C67.4561 191.902 66.6875 191.902 66.6875 192.398Z" fill="#50AA50"/>
<path d="M71.4231 196.887C71.5347 196.999 71.6462 197.123 71.7578 197.234C72.0925 197.594 72.638 197.048 72.3033 196.689C72.1917 196.577 72.0801 196.453 71.9686 196.342C71.6338 195.982 71.0884 196.528 71.4231 196.887Z" fill="#50AA50"/>
<path d="M72.1795 192.324C72.5142 192.349 72.8614 192.361 73.1961 192.386C73.692 192.411 73.692 191.654 73.1961 191.617C72.8614 191.592 72.5142 191.58 72.1795 191.555C71.6836 191.53 71.6836 192.287 72.1795 192.324Z" fill="#50AA50"/>
<path d="M73.2577 186.198C73.4808 186.422 73.7163 186.657 73.9395 186.88C74.2866 187.228 74.8321 186.682 74.485 186.335C74.2618 186.112 74.0263 185.876 73.8031 185.653C73.456 185.305 72.9105 185.851 73.2577 186.198Z" fill="#50AA50"/>
<path d="M76.208 184.227V185.417C76.208 185.913 76.9766 185.913 76.9766 185.417V184.227C76.9766 183.731 76.208 183.731 76.208 184.227Z" fill="#50AA50"/>
<path d="M77.5971 191.394C77.7087 191.22 77.8203 191.047 77.9319 190.886C78.2046 190.476 77.5352 190.092 77.2748 190.501C77.1632 190.675 77.0517 190.848 76.9401 191.01C76.6674 191.419 77.3368 191.803 77.5971 191.394Z" fill="#50AA50"/>
<path d="M75.0057 198.908C75.2908 198.797 75.5759 198.685 75.8611 198.574C76.3198 198.4 76.1214 197.656 75.6627 197.83C75.3776 197.941 75.0925 198.053 74.8073 198.164C74.3486 198.338 74.547 199.082 75.0057 198.908Z" fill="#50AA50"/>
<path d="M78.3901 197.842C78.6752 197.78 78.9603 197.73 79.2331 197.668C79.7165 197.569 79.5058 196.825 79.0347 196.924C78.7496 196.986 78.4644 197.036 78.1917 197.098C77.7082 197.197 77.919 197.941 78.3901 197.842Z" fill="#50AA50"/>
<path d="M76.208 201.413V201.587C76.208 202.083 76.9766 202.083 76.9766 201.587V201.413C76.9766 200.917 76.208 200.917 76.208 201.413Z" fill="#50AA50"/>
<path d="M69.6381 213.131C69.8117 213.02 69.9729 212.908 70.1464 212.796C70.5555 212.524 70.1712 211.866 69.7621 212.139C69.5885 212.251 69.4274 212.362 69.2538 212.474C68.8447 212.747 69.229 213.404 69.6381 213.131Z" fill="#50AA50"/>
<path d="M69.1918 215.946C69.5017 215.648 69.824 215.487 70.2331 215.388C70.7166 215.276 70.5059 214.532 70.0348 214.644C69.5017 214.768 69.0554 215.016 68.6587 215.4C68.2992 215.748 68.8447 216.281 69.2042 215.946H69.1918Z" fill="#50AA50"/>
<path d="M66.0426 216.405C66.1046 216.516 66.1542 216.628 66.2162 216.74C66.4394 217.174 67.0964 216.789 66.8732 216.355C66.8113 216.244 66.7617 216.132 66.6997 216.02C66.4765 215.586 65.8195 215.971 66.0426 216.405Z" fill="#50AA50"/>
<path d="M63.1293 217.235C63.5632 217.459 63.9723 217.521 64.4558 217.421C64.9393 217.322 64.7285 216.591 64.2574 216.677C63.9847 216.727 63.7616 216.702 63.526 216.566C63.0921 216.343 62.7078 217 63.1417 217.223L63.1293 217.235Z" fill="#50AA50"/>
<path d="M69.4525 209.969C69.9607 209.907 70.469 209.845 70.9773 209.783C71.4608 209.721 71.4608 208.952 70.9773 209.014C70.469 209.076 69.9607 209.138 69.4525 209.2C68.969 209.262 68.969 210.031 69.4525 209.969Z" fill="#50AA50"/>
<path d="M137.982 176.427C146.213 168.975 154.457 161.535 162.689 154.082C163.904 152.979 162.106 151.181 160.891 152.284C152.66 159.737 144.416 167.177 136.184 174.629C134.969 175.733 136.767 177.531 137.982 176.44V176.427Z" fill="#D7E7FF"/>
<path d="M165.913 187.823C174.144 180.37 182.388 172.93 190.62 165.478C191.835 164.374 190.037 162.576 188.822 163.68C180.591 171.132 172.347 178.572 164.115 186.025C162.9 187.128 164.698 188.926 165.913 187.823Z" fill="#D7E7FF"/>
<path d="M135.565 196.267C152.822 179.428 170.091 162.589 187.347 145.762C188.525 144.609 186.715 142.811 185.55 143.964C168.293 160.803 151.024 177.642 133.767 194.469C132.59 195.622 134.4 197.42 135.565 196.267Z" fill="#D7E7FF"/>
<path d="M214.732 39.1964H213.616V110.484H214.732V39.1964Z" fill="#415B91"/>
<path d="M218.686 110.484C218.686 112.989 216.666 115.01 214.162 115.01C211.657 115.01 209.637 112.989 209.637 110.484C209.637 107.979 211.657 105.958 214.162 105.958C216.666 105.958 218.686 107.979 218.686 110.484Z" fill="#415B91"/>
<path d="M214.223 125.674C214.149 125.674 212.674 125.662 211.595 124.583C210.876 123.864 210.517 122.872 210.517 121.619C210.517 121.284 210.789 121.024 211.112 121.024C211.434 121.024 211.707 121.297 211.707 121.619C211.707 122.537 211.955 123.256 212.438 123.74C213.157 124.459 214.211 124.484 214.223 124.484C215.909 124.484 217.285 123.107 217.285 121.421C217.285 119.734 215.909 118.358 214.223 118.358C213.889 118.358 213.628 118.085 213.628 117.763V114.44C213.628 114.105 213.901 113.844 214.223 113.844C214.546 113.844 214.818 114.117 214.818 114.44V117.205C216.889 117.502 218.475 119.276 218.475 121.421C218.475 123.764 216.566 125.674 214.223 125.674Z" fill="#415B91"/>
<path d="M190.471 128.452C190.235 128.414 190.049 128.228 190.012 127.98C189.963 127.683 190.173 127.398 190.483 127.348L214.967 123.74C215.265 123.69 215.55 123.901 215.599 124.211C215.649 124.508 215.438 124.794 215.128 124.843L190.644 128.452C190.644 128.452 190.52 128.452 190.471 128.452Z" fill="#415B91"/>
<path d="M237.48 136.611C237.48 136.611 237.369 136.586 237.319 136.561L214.806 124.806C214.533 124.67 214.434 124.335 214.571 124.062C214.707 123.789 215.042 123.69 215.314 123.827L237.827 135.582C238.1 135.718 238.199 136.053 238.063 136.326C237.951 136.549 237.703 136.661 237.48 136.611Z" fill="#415B91"/>
<path d="M243.612 137.714L183.642 127.289C180.498 126.742 177.507 128.848 176.961 131.992L170.96 166.529C170.413 169.673 172.519 172.665 175.662 173.212L235.632 183.638C238.775 184.184 241.766 182.078 242.313 178.934L248.314 144.397C248.861 141.253 246.755 138.261 243.612 137.714Z" fill="white"/>
<path d="M236.463 184.438C236.079 184.438 235.695 184.4 235.298 184.338L175.756 173.984C173.983 173.674 172.433 172.695 171.392 171.219C170.351 169.744 169.954 167.946 170.264 166.172L176.189 132.06C176.822 128.39 180.33 125.922 184 126.554L243.542 136.908C245.315 137.218 246.877 138.198 247.906 139.674C248.947 141.149 249.344 142.935 249.034 144.72L243.108 178.833C242.538 182.119 239.674 184.438 236.451 184.438H236.463ZM182.834 127.993C180.342 127.993 178.136 129.791 177.69 132.32L171.764 166.433C171.528 167.809 171.838 169.198 172.644 170.339C173.45 171.48 174.652 172.236 176.016 172.484L235.571 182.838C238.41 183.334 241.112 181.424 241.608 178.585L247.534 144.472C247.77 143.096 247.46 141.707 246.654 140.566C245.848 139.426 244.645 138.669 243.282 138.421L183.727 128.067C183.429 128.018 183.132 127.993 182.834 127.993Z" fill="#415B91"/>
<path d="M241.908 141.081L184.088 131.028C182.078 130.679 180.165 132.026 179.816 134.036L174.336 165.568C173.987 167.579 175.333 169.492 177.344 169.841L235.164 179.893C237.174 180.243 239.087 178.896 239.436 176.886L244.915 145.354C245.265 143.343 243.918 141.43 241.908 141.081Z" fill="#B6D0FB"/>
<path d="M235.72 180.68C235.46 180.68 235.187 180.656 234.927 180.606L177.356 170.599C176.153 170.388 175.099 169.719 174.393 168.714C173.686 167.71 173.413 166.495 173.624 165.28L179.054 134.007C179.488 131.514 181.868 129.828 184.36 130.274L241.931 140.281C244.423 140.715 246.109 143.096 245.675 145.588L240.245 176.861C240.035 178.064 239.365 179.13 238.361 179.837C237.58 180.383 236.663 180.68 235.733 180.68H235.72ZM235.187 179.106C235.993 179.242 236.811 179.068 237.468 178.597C238.138 178.126 238.584 177.419 238.721 176.613L244.15 145.34C244.436 143.679 243.32 142.092 241.659 141.794L184.087 131.787C182.426 131.502 180.839 132.618 180.542 134.28L175.112 165.552C174.975 166.358 175.149 167.164 175.62 167.834C176.091 168.504 176.798 168.95 177.604 169.086L235.175 179.093L235.187 179.106Z" fill="#405B91"/>
<path d="M207.753 175.113L222.716 161.398L230.997 179.155L207.753 175.113Z" fill="white"/>
<path d="M231.877 179.825L206.649 175.435L222.889 160.543L231.877 179.812V179.825ZM208.868 174.79L230.129 178.486L222.555 162.242L208.868 174.79Z" fill="#415B91"/>
<path d="M178.16 169.967L204.69 145.65L219.38 177.134L178.16 169.967Z" fill="white"/>
<path d="M220.248 177.804L177.045 170.289L204.851 144.795L220.248 177.791V177.804ZM179.264 169.644L218.5 176.464L204.529 146.494L179.276 169.644H179.264Z" fill="#415B91"/>
<path d="M236.241 150.263C235.894 152.284 233.972 153.636 231.951 153.289C229.931 152.942 228.579 151.02 228.926 148.998C229.274 146.977 231.195 145.626 233.216 145.973C235.236 146.32 236.588 148.242 236.241 150.263Z" fill="white"/>
<path d="M232.596 153.847C232.348 153.847 232.112 153.822 231.864 153.785C229.571 153.388 228.034 151.193 228.431 148.899C228.629 147.783 229.236 146.816 230.154 146.171C231.071 145.526 232.187 145.266 233.303 145.464C234.418 145.663 235.385 146.27 236.03 147.188C236.675 148.106 236.935 149.234 236.736 150.338C236.538 151.454 235.931 152.421 235.013 153.066C234.294 153.574 233.451 153.834 232.596 153.834V153.847ZM232.584 146.419C231.926 146.419 231.294 146.618 230.749 147.002C230.055 147.498 229.583 148.23 229.435 149.073C229.286 149.916 229.484 150.759 229.968 151.466C230.464 152.16 231.195 152.632 232.038 152.78C232.881 152.929 233.724 152.731 234.431 152.247C235.125 151.751 235.596 151.02 235.745 150.176C236.042 148.44 234.877 146.779 233.141 146.469C232.955 146.432 232.769 146.419 232.584 146.419Z" fill="#415B91"/>
<path d="M260.042 36.8032H204.43V42.9288H260.042V36.8032Z" fill="#B6D0FB"/>
<path d="M308.378 163.358H289.919V0.086792H308.378V163.37V163.358ZM291.741 161.535H306.556V1.90959H291.741V161.535Z" fill="#415B91"/>
<path d="M308.142 18.0048H290.142V0H308.142V18.0048ZM291.989 16.1572H306.282V1.8476H291.989V16.1448V16.1572Z" fill="#415B91"/>
<path d="M291.711 0.280093L290.405 1.58655L306.552 17.7374L307.858 16.431L291.711 0.280093Z" fill="#415B91"/>
<path d="M306.552 0.271239L290.405 16.4221L291.711 17.7286L307.858 1.57769L306.552 0.271239Z" fill="#415B91"/>
<path d="M308.142 34.162H290.142V16.1572H308.142V34.162ZM291.989 32.3144H306.282V18.0172H291.989V32.3144Z" fill="#415B91"/>
<path d="M291.708 16.4206L290.401 17.7271L306.548 33.8779L307.854 32.5715L291.708 16.4206Z" fill="#415B91"/>
<path d="M306.557 16.4207L290.41 32.5715L291.716 33.878L307.863 17.7271L306.557 16.4207Z" fill="#415B91"/>
<path d="M308.142 50.3068H290.142V32.302H308.142V50.3068ZM291.989 48.4592H306.282V34.162H291.989V48.4592Z" fill="#415B91"/>
<path d="M291.711 32.5822L290.405 33.8887L306.552 50.0396L307.858 48.7331L291.711 32.5822Z" fill="#415B91"/>
<path d="M306.574 32.5946L290.427 48.7455L291.733 50.0519L307.88 33.9011L306.574 32.5946Z" fill="#415B91"/>
<path d="M308.142 66.464H290.142V48.4592H308.142V66.464ZM291.989 64.6164H306.282V50.3192H291.989V64.6164Z" fill="#415B91"/>
<path d="M291.716 48.7315L290.41 50.038L306.557 66.1888L307.863 64.8824L291.716 48.7315Z" fill="#415B91"/>
<path d="M306.557 48.7228L290.41 64.8737L291.716 66.1801L307.863 50.0292L306.557 48.7228Z" fill="#415B91"/>
<path d="M308.142 82.6213H290.142V64.6165H308.142V82.6213ZM291.989 80.7737H306.282V66.4765H291.989V80.7737Z" fill="#415B91"/>
<path d="M291.712 64.8845L290.406 66.1909L306.553 82.3418L307.859 81.0353L291.712 64.8845Z" fill="#415B91"/>
<path d="M306.561 64.8968L290.414 81.0477L291.72 82.3542L307.867 66.2033L306.561 64.8968Z" fill="#415B91"/>
<path d="M308.142 98.766H290.142V80.7612H308.142V98.766ZM291.989 96.9184H306.282V82.6212H291.989V96.9184Z" fill="#415B91"/>
<path d="M291.716 81.0338L290.41 82.3402L306.557 98.4911L307.863 97.1846L291.716 81.0338Z" fill="#415B91"/>
<path d="M306.566 81.0461L290.419 97.197L291.725 98.5035L307.872 82.3526L306.566 81.0461Z" fill="#415B91"/>
<path d="M308.142 114.923H290.142V96.9185H308.142V114.923ZM291.989 113.076H306.282V98.7785H291.989V113.076Z" fill="#415B91"/>
<path d="M291.721 97.1954L290.415 98.5018L306.562 114.653L307.868 113.346L291.721 97.1954Z" fill="#415B91"/>
<path d="M306.562 97.199L290.415 113.35L291.721 114.656L307.868 98.5054L306.562 97.199Z" fill="#415B91"/>
<path d="M308.142 131.08H290.142V113.076H308.142V131.08ZM291.989 129.233H306.282V114.936H291.989V129.233Z" fill="#415B91"/>
<path d="M291.716 113.348L290.41 114.655L306.557 130.806L307.863 129.499L291.716 113.348Z" fill="#415B91"/>
<path d="M306.566 113.348L290.419 129.499L291.725 130.805L307.872 114.655L306.566 113.348Z" fill="#415B91"/>
<path d="M308.142 147.225H290.142V129.22H308.142V147.225ZM291.989 145.378H306.282V131.08H291.989V145.378Z" fill="#415B91"/>
<path d="M291.708 129.497L290.402 130.804L306.549 146.955L307.855 145.648L291.708 129.497Z" fill="#415B91"/>
<path d="M306.571 129.51L290.424 145.661L291.73 146.967L307.877 130.816L306.571 129.51Z" fill="#415B91"/>
<path d="M308.142 163.382H290.142V145.378H308.142V163.382ZM291.989 161.535H306.282V147.238H291.989V161.535Z" fill="#415B91"/>
<path d="M291.713 145.647L290.407 146.953L306.554 163.104L307.86 161.798L291.713 145.647Z" fill="#415B91"/>
<path d="M306.561 145.646L290.411 161.794L291.717 163.1L307.867 146.952L306.561 145.646Z" fill="#415B91"/>
<path d="M340.276 33.914H322.275V15.9092H340.276V33.914ZM324.123 32.0664H338.416V17.7692H324.123V32.0664Z" fill="#415B91"/>
<path d="M338.697 16.1775L322.553 32.3312L323.859 33.6374L340.003 17.4837L338.697 16.1775Z" fill="#415B91"/>
<path d="M323.846 16.1817L322.54 17.4882L338.687 33.639L339.993 32.3326L323.846 16.1817Z" fill="#415B91"/>
<path d="M324.122 33.914H306.122V15.9092H324.122V33.914ZM307.969 32.0664H322.263V17.7692H307.969V32.0664Z" fill="#415B91"/>
<path d="M322.542 16.1838L306.397 32.3375L307.704 33.6437L323.848 17.49L322.542 16.1838Z" fill="#415B91"/>
<path d="M307.709 16.1774L306.403 17.4839L322.55 33.6348L323.856 32.3283L307.709 16.1774Z" fill="#415B91"/>
<path d="M307.982 33.914H289.981V15.9092H307.982V33.914ZM291.829 32.0664H306.122V17.7692H291.829V32.0664Z" fill="#415B91"/>
<path d="M291.829 33.914H273.828V15.9092H291.829V33.914ZM275.675 32.0664H289.969V17.7692H275.675V32.0664Z" fill="#415B91"/>
<path d="M290.248 16.1776L274.101 32.3285L275.407 33.6349L291.554 17.4841L290.248 16.1776Z" fill="#415B91"/>
<path d="M275.407 16.1864L274.101 17.4928L290.248 33.6437L291.554 32.3372L275.407 16.1864Z" fill="#415B91"/>
<path d="M275.675 33.914H257.675V15.9092H275.675V33.914ZM259.522 32.0664H273.816V17.7692H259.522V32.0664Z" fill="#415B91"/>
<path d="M274.089 16.1821L257.942 32.333L259.249 33.6395L275.395 17.4886L274.089 16.1821Z" fill="#415B91"/>
<path d="M259.257 16.1821L257.951 17.4885L274.098 33.6394L275.404 32.333L259.257 16.1821Z" fill="#415B91"/>
<path d="M259.535 33.914H241.534V15.9092H259.535V33.914ZM243.381 32.0664H257.675V17.7692H243.381V32.0664Z" fill="#415B91"/>
<path d="M242.451 33.914H226.298C225.926 33.914 225.591 33.6908 225.443 33.3436C225.294 32.9964 225.381 32.5996 225.641 32.3392L241.794 16.182L243.108 17.4964L228.542 32.0664H242.079L257.96 16.182L259.274 17.4964L243.121 33.6536C242.947 33.8272 242.712 33.9264 242.464 33.9264L242.451 33.914Z" fill="#415B91"/>
<path d="M243.112 16.1866L241.806 17.493L257.953 33.6439L259.259 32.3375L243.112 16.1866Z" fill="#415B91"/>
<path d="M308.415 181.362H289.919V163.358H308.415V181.362ZM291.816 179.515H306.518V165.218H291.816V179.515Z" fill="#415B91"/>
<path d="M306.791 181.09L290.191 164.945L291.53 163.63L308.13 179.788L306.791 181.09Z" fill="#415B91"/>
<path d="M291.53 181.09L290.191 179.788L306.791 163.63L308.13 164.945L291.53 181.09Z" fill="#415B91"/>
<path d="M308.415 245.979H289.919V227.974H308.415V245.979ZM291.816 244.131H306.518V229.834H291.816V244.131Z" fill="#415B91"/>
<path d="M306.791 245.706L290.191 229.549L291.53 228.247L308.13 244.392L306.791 245.706Z" fill="#415B91"/>
<path d="M291.53 245.706L290.191 244.392L306.791 228.247L308.13 229.549L291.53 245.706Z" fill="#415B91"/>
<path d="M308.415 195.982H289.919V177.977H308.415V195.982ZM291.816 194.134H306.518V179.837H291.816V194.134Z" fill="#415B91"/>
<path d="M306.791 195.722L290.191 179.564L291.53 178.25L308.13 194.407L306.791 195.722Z" fill="#415B91"/>
<path d="M291.53 195.722L290.191 194.407L306.791 178.25L308.13 179.564L291.53 195.722Z" fill="#415B91"/>
<path d="M308.415 212.139H289.919V194.134H308.415V212.139ZM291.816 210.291H306.518V195.994H291.816V210.291Z" fill="#415B91"/>
<path d="M306.791 211.866L290.191 195.721L291.53 194.407L308.13 210.564L306.791 211.866Z" fill="#415B91"/>
<path d="M291.53 211.866L290.191 210.564L306.791 194.407L308.13 195.721L291.53 211.866Z" fill="#415B91"/>
<path d="M308.415 228.296H289.919V210.292H308.415V228.296ZM291.816 226.449H306.518V212.152H291.816V226.449Z" fill="#415B91"/>
<path d="M306.791 228.023L290.191 211.866L291.53 210.564L308.13 226.709L306.791 228.023Z" fill="#415B91"/>
<path d="M291.53 228.023L290.191 226.709L306.791 210.564L308.13 211.866L291.53 228.023Z" fill="#415B91"/>
<path d="M101.931 97.9723C103.903 97.9723 103.903 94.9095 101.931 94.9095C99.9603 94.9095 99.9603 97.9723 101.931 97.9723Z" fill="#405B91"/>
<path d="M267.902 65.9929C269.873 65.9929 269.873 62.9301 267.902 62.9301C265.931 62.9301 265.931 65.9929 267.902 65.9929Z" fill="#405B91"/>
<path d="M336.606 175.534H337.288C338.094 175.534 338.85 174.827 338.813 174.009C338.776 173.178 338.143 172.484 337.288 172.484H336.606C335.8 172.484 335.044 173.191 335.081 174.009C335.119 174.84 335.751 175.534 336.606 175.534Z" fill="#405B91"/>
<path d="M41.3973 197.991C43.3684 197.991 43.3684 194.928 41.3973 194.928C39.4262 194.928 39.4262 197.991 41.3973 197.991Z" fill="#405B91"/>
<path d="M187.632 51.0261C189.603 51.0261 189.603 47.9633 187.632 47.9633C185.661 47.9633 185.661 51.0261 187.632 51.0261Z" fill="#405B91"/>
</g>
<defs>
<clipPath id="clip0_4721_63277">
<rect width="394" height="248" fill="white" transform="translate(0.5)"/>
</clipPath>
</defs>
</svg>
