<svg width="269" height="248" viewBox="0 0 269 248" fill="none" xmlns="http://www.w3.org/2000/svg">
<g clip-path="url(#clip0_4728_64214)">
<path d="M96.3834 195.612H76.4375V229.295H96.3834V195.612Z" fill="#2965AA"/>
<path d="M72.998 195.241V228.629C72.998 229.431 74.2431 229.431 74.2431 228.629V195.241C74.2431 194.439 72.998 194.439 72.998 195.241Z" fill="#434040"/>
<path d="M74.2308 196.08H94.5712C95.3725 196.08 95.3725 194.834 94.5712 194.834H74.2308C73.4296 194.834 73.4296 196.08 74.2308 196.08Z" fill="#434040"/>
<path d="M73.7992 229.283C80.7273 229.283 87.643 229.246 94.5711 229.246C95.3723 229.246 95.3723 228 94.5711 228C87.643 228 80.7273 228.037 73.7992 228.037C72.9979 228.037 72.9979 229.283 73.7992 229.283Z" fill="#434040"/>
<path d="M93.9424 195.71V228.666C93.9424 229.468 95.1875 229.468 95.1875 228.666V195.71C95.1875 194.908 93.9424 194.908 93.9424 195.71Z" fill="#434040"/>
<path d="M89.6279 195.71V228.802C89.6279 229.604 90.873 229.604 90.873 228.802V195.71C90.873 194.908 89.6279 194.908 89.6279 195.71Z" fill="#434040"/>
<path d="M76.7578 228.925V233.959C76.7578 234.761 78.0029 234.761 78.0029 233.959V228.925C78.0029 228.123 76.7578 228.123 76.7578 228.925Z" fill="#434040"/>
<path d="M78.0149 234.403C78.4217 233.934 78.9148 233.564 79.3586 233.132C79.4695 233.021 79.5435 232.848 79.5435 232.688C79.5435 232.528 79.4695 232.355 79.3586 232.244C79.2476 232.133 79.0874 232.059 78.9148 232.059C78.7422 232.059 78.5943 232.121 78.471 232.244C78.0395 232.676 77.5341 233.046 77.1273 233.515C77.0163 233.638 76.9424 233.786 76.9424 233.959C76.9424 234.107 77.0163 234.292 77.1273 234.403C77.2382 234.514 77.3985 234.588 77.5711 234.588C77.7437 234.588 77.9039 234.526 78.0149 234.403Z" fill="#434040"/>
<path d="M78.558 233.132C78.9032 233.601 79.2853 234.033 79.7415 234.403C79.8031 234.465 79.8647 234.502 79.9387 234.527C80.0127 234.564 80.099 234.588 80.1729 234.576C80.3209 234.576 80.5058 234.502 80.6167 234.391C80.7277 234.28 80.8016 234.119 80.8016 233.947C80.8016 233.786 80.74 233.613 80.6167 233.502C80.2592 233.206 79.9264 232.873 79.6428 232.515L79.7415 232.639C79.7415 232.639 79.6675 232.54 79.6305 232.491C79.5935 232.417 79.5319 232.355 79.4703 232.318C79.4086 232.269 79.3347 232.232 79.2607 232.207C79.1128 232.17 78.9155 232.182 78.7799 232.269C78.6443 232.355 78.5334 232.478 78.4964 232.639C78.4594 232.799 78.4594 232.984 78.558 233.12V233.132Z" fill="#434040"/>
<path d="M81.023 233.959C81.023 232.281 81.0847 230.578 81.2942 228.925C81.3435 228.592 80.9737 228.296 80.6655 228.296C80.2957 228.296 80.0861 228.579 80.0368 228.925C79.8273 230.591 79.7656 232.293 79.7656 233.959C79.7656 234.761 81.0107 234.761 81.0107 233.959H81.023Z" fill="#434040"/>
<path d="M177.313 39.3839C177.313 41.4567 175.637 43.1347 173.566 43.1347C171.495 43.1347 169.818 41.4567 169.818 39.3839C169.818 37.3111 171.495 35.6331 173.566 35.6331C175.637 35.6331 177.313 37.3111 177.313 39.3839Z" fill="#2965AA"/>
<path d="M136.139 103.37C136.139 103.37 134.796 101.816 134.833 101.433C135.326 96.4857 139.912 61.6916 172.777 63.4313C208.144 65.3068 202.486 110.07 202.486 110.07C202.486 110.07 165.639 128.368 136.139 103.37Z" fill="#CCE7E5"/>
<path d="M164.924 93.2777L163.58 72.8701L175.18 72.8825L169.547 89.1443L175.883 90.1314L167.821 103.247L167.426 93.4998L164.394 93.2777" fill="#F4CC37"/>
<path d="M99.4772 113.846C99.4772 113.846 125.858 133.575 160.88 137.831C195.903 142.088 225.045 134.944 231.616 130.144C231.616 130.144 228.879 140.743 207.232 145.987C185.585 151.231 117.364 146.382 99.4648 113.858L99.4772 113.846Z" fill="#2965AA"/>
<path d="M132.958 97.6947C137.852 105.011 146.765 108.478 155.025 110.329C163.913 112.328 173.282 112.821 182.342 111.982C185.104 111.723 187.828 111.205 190.54 110.687C193.98 110.033 197.431 109.268 200.686 107.96C201.425 107.664 201.105 106.455 200.353 106.763C195.175 108.849 189.27 109.959 183.735 110.601C179.754 111.057 175.723 111.168 171.716 111.057C162.594 110.81 153.028 109.515 144.694 105.616C140.515 103.666 136.62 100.94 134.031 97.0655C133.587 96.3992 132.502 97.0284 132.958 97.6947Z" fill="#434040"/>
<path d="M125.525 100.804C131.479 110.81 142.919 115.82 153.817 118.361C164.714 120.903 177.104 121.545 188.63 120.2C192.303 119.768 195.928 118.941 199.527 118.127C203.78 117.165 208.033 116.029 212.015 114.203C212.742 113.87 212.114 112.797 211.386 113.13C207.824 114.759 204.002 115.795 200.193 116.696C196.778 117.498 193.314 118.349 189.838 118.806C184.722 119.484 179.544 119.694 174.404 119.583C162.742 119.336 150.476 117.547 139.998 112.131C134.586 109.342 129.741 105.443 126.598 100.162C126.191 99.4715 125.106 100.101 125.525 100.792V100.804Z" fill="#434040"/>
<path d="M98.9225 111.563C114.689 123.667 132.959 130.897 152.436 134.414C171.914 137.93 194.165 139.744 214.234 134.858C220.311 133.377 226.192 131.206 231.727 128.306C232.442 127.936 231.813 126.863 231.098 127.233C218.647 133.76 204.582 136.203 190.627 136.499C179.113 136.746 167.513 135.647 156.159 133.809C146.383 132.23 136.706 129.885 127.461 126.32C117.426 122.445 108.069 117.054 99.5388 110.502C98.8978 110.008 98.2814 111.094 98.9101 111.575L98.9225 111.563Z" fill="#434040"/>
<path d="M134.093 97.5467C135.277 89.8352 135.992 81.5439 140.528 74.9429C144.683 68.8971 150.982 64.3566 157.861 61.926C164.739 59.4953 172.432 59.0882 179.286 61.7162C186.596 64.5294 192.994 70.2544 196.779 77.0898C199.158 81.3958 200.008 85.8376 200.317 90.7113C200.662 96.2635 200.452 101.828 199.897 107.356C199.811 108.158 201.069 108.145 201.143 107.356C201.673 102.124 201.882 96.8557 201.611 91.5996C201.377 87.2072 200.871 83.0122 199.096 78.9652C195.842 71.5622 189.641 65.356 182.429 61.7533C168.709 54.9055 151.315 60.1616 141.613 71.4882C135.363 78.7925 134.29 88.0339 132.897 97.2136C132.774 98.0032 133.982 98.3363 134.093 97.5467Z" fill="#434040"/>
<path d="M133.44 97.3369C130.605 97.6331 128.065 98.8052 125.439 99.8293C122.592 100.94 119.756 102.075 116.933 103.222C111.041 105.616 105.185 108.071 99.3174 110.527C98.5901 110.835 98.9106 112.044 99.6502 111.723C105.321 109.342 111.004 106.973 116.699 104.654C119.535 103.506 122.37 102.359 125.205 101.248C127.893 100.199 130.543 98.8669 133.44 98.5708C134.229 98.4844 134.241 97.2382 133.44 97.3246V97.3369Z" fill="#434040"/>
<path d="M200.969 107.602C203.743 108.478 206.061 110.304 208.464 111.884C211.041 113.574 213.58 115.339 216.095 117.128C221.174 120.73 226.179 124.432 231.307 127.973C231.973 128.429 232.589 127.344 231.936 126.9C226.648 123.247 221.482 119.435 216.243 115.721C213.728 113.944 211.189 112.192 208.612 110.502C206.258 108.96 204.014 107.269 201.302 106.406C200.538 106.159 200.205 107.368 200.969 107.602Z" fill="#434040"/>
<path d="M98.9351 111.452C106.825 128.232 125.932 136.153 142.809 140.533C151.401 142.767 160.141 144.149 168.943 145.197C180.728 146.592 192.341 146.69 203.916 143.729C209.402 142.322 214.801 140.373 219.856 137.819C224.417 135.512 229.225 132.551 231.949 128.084C232.368 127.393 231.296 126.764 230.876 127.455C228.411 131.489 224.121 134.179 220.028 136.326C215.664 138.621 211.029 140.385 206.308 141.78C195.114 145.062 183.711 145.53 172.173 144.321C154.705 142.483 136.596 139.349 120.903 131.045C112.187 126.431 104.285 119.916 100.02 110.835C99.6748 110.107 98.6023 110.736 98.9474 111.464L98.9351 111.452Z" fill="#434040"/>
<path d="M138.703 101.717C139.443 97.2629 140.318 92.8334 141.847 88.5767C142.118 87.8241 140.91 87.4909 140.651 88.2436C139.123 92.5003 138.247 96.9297 137.508 101.384C137.372 102.174 138.58 102.507 138.703 101.717Z" fill="#434040"/>
<path d="M142.944 104.469C143.239 100.385 144.201 96.3746 145.68 92.5497C145.976 91.7971 144.768 91.4763 144.485 92.2166C142.968 96.1402 142.007 100.261 141.699 104.469C141.637 105.271 142.882 105.271 142.944 104.469Z" fill="#434040"/>
<path d="M146.544 106.899C146.729 105.061 146.803 103.136 147.604 101.421C147.752 101.112 147.69 100.742 147.382 100.57C147.111 100.409 146.679 100.483 146.531 100.792C145.631 102.716 145.508 104.814 145.299 106.899C145.262 107.232 145.607 107.528 145.927 107.528C146.297 107.528 146.519 107.245 146.556 106.899H146.544Z" fill="#434040"/>
<path d="M148.911 107.861C149.145 106.924 149.256 105.949 149.614 105.048C149.737 104.74 149.478 104.345 149.182 104.283C148.825 104.197 148.541 104.394 148.418 104.715C148.06 105.616 147.949 106.591 147.715 107.528C147.641 107.849 147.814 108.219 148.147 108.293C148.479 108.367 148.825 108.195 148.911 107.861Z" fill="#434040"/>
<path d="M152.264 108.59C152.289 108.392 152.301 108.195 152.326 107.997C152.326 107.899 152.35 107.812 152.363 107.714C152.338 107.849 152.375 107.59 152.363 107.714C152.363 107.664 152.375 107.615 152.387 107.578C152.449 107.195 152.523 106.825 152.622 106.455C152.708 106.147 152.511 105.764 152.19 105.69C151.87 105.616 151.512 105.789 151.426 106.122C151.204 106.924 151.118 107.751 151.031 108.59C151.019 108.738 151.118 108.923 151.216 109.034C151.327 109.145 151.5 109.219 151.66 109.219C152.03 109.206 152.252 108.947 152.289 108.59H152.264Z" fill="#434040"/>
<path d="M136.065 99.3604C136.201 96.9051 136.571 94.4745 137.224 92.0932C137.434 91.3159 136.238 90.9827 136.028 91.76C135.35 94.24 134.956 96.7941 134.82 99.3604C134.783 100.162 136.028 100.162 136.065 99.3604Z" fill="#434040"/>
<path d="M198.319 106.628C199.12 106.628 199.12 105.382 198.319 105.382C197.517 105.382 197.517 106.628 198.319 106.628Z" fill="#434040"/>
<path d="M198.406 104.444C199.207 104.444 199.207 103.198 198.406 103.198C197.604 103.198 197.604 104.444 198.406 104.444Z" fill="#434040"/>
<path d="M198.43 101.557C199.231 101.557 199.231 100.311 198.43 100.311C197.629 100.311 197.629 101.557 198.43 101.557Z" fill="#434040"/>
<path d="M186.498 70.4517C191.355 74.0175 195.127 79.286 196.877 85.0603C197.112 85.8253 198.307 85.5045 198.073 84.7272C196.224 78.6197 192.255 73.1415 187.114 69.366C186.461 68.8848 185.844 69.9705 186.485 70.4394L186.498 70.4517Z" fill="#434040"/>
<path d="M179.569 65.7509C180.136 66.084 180.715 66.4048 181.27 66.7503C181.541 66.923 181.812 67.0957 182.071 67.2685C182.207 67.3548 182.342 67.4535 182.478 67.5522C182.539 67.6016 182.613 67.6509 182.675 67.7003C182.687 67.7126 182.872 67.8484 182.786 67.7867C183.045 67.9841 183.415 68.0581 183.661 67.7867C183.871 67.5646 183.932 67.1204 183.661 66.9106C182.564 66.0593 181.381 65.3684 180.185 64.6774C179.901 64.517 179.495 64.6034 179.334 64.8995C179.174 65.1956 179.26 65.5781 179.556 65.7509H179.569Z" fill="#434040"/>
<path d="M211.202 116.881C214.703 119.756 218.5 122.236 221.865 125.283C222.457 125.826 223.344 124.938 222.74 124.407C219.375 121.36 215.578 118.88 212.077 116.005C211.461 115.499 210.573 116.375 211.202 116.881Z" fill="#434040"/>
<path d="M223.455 126.517C223.862 126.863 224.256 127.22 224.675 127.566C224.737 127.627 224.799 127.665 224.873 127.689C224.947 127.726 225.033 127.751 225.107 127.739C225.255 127.739 225.44 127.665 225.551 127.553C225.662 127.442 225.736 127.282 225.736 127.109C225.736 126.949 225.674 126.776 225.551 126.665C225.132 126.32 224.737 125.962 224.33 125.616C224.195 125.505 224.059 125.431 223.887 125.431C223.739 125.431 223.554 125.505 223.443 125.616C223.332 125.727 223.258 125.888 223.258 126.061C223.258 126.221 223.319 126.394 223.443 126.505L223.455 126.517Z" fill="#434040"/>
<path d="M108.92 121.002C117.488 129.577 129.137 133.377 140.553 136.499C141.329 136.709 141.662 135.512 140.885 135.302C129.68 132.23 118.215 128.541 109.795 120.126C109.228 119.558 108.341 120.434 108.92 121.002Z" fill="#434040"/>
<path d="M153.459 139.213C155.259 139.534 157.084 139.731 158.92 139.781C159.722 139.805 159.722 138.559 158.92 138.535C157.195 138.485 155.481 138.312 153.792 138.004C153.459 137.942 153.127 138.09 153.028 138.436C152.942 138.732 153.127 139.139 153.459 139.201V139.213Z" fill="#434040"/>
<path d="M135.511 99.8416C132.675 100.459 130.345 102.605 129.359 105.295C129.248 105.616 129.495 105.974 129.791 106.06C130.136 106.159 130.444 105.937 130.555 105.628C131.406 103.333 133.452 101.569 135.843 101.038C136.176 100.964 136.361 100.582 136.275 100.273C136.176 99.928 135.843 99.7676 135.511 99.8416Z" fill="#434040"/>
<path d="M139.467 103.938C137.569 105.505 136.361 107.676 135.695 110.021C135.473 110.798 136.681 111.119 136.891 110.354C137.507 108.195 138.592 106.258 140.343 104.814C140.601 104.604 140.564 104.148 140.343 103.938C140.084 103.679 139.726 103.728 139.467 103.938Z" fill="#434040"/>
<path d="M146.655 107.504C145.459 109.7 144.522 112.353 144.867 114.882C144.917 115.215 145.126 115.511 145.496 115.511C145.804 115.511 146.162 115.227 146.125 114.882C145.817 112.55 146.642 110.156 147.752 108.133C148.134 107.43 147.062 106.8 146.679 107.504H146.655Z" fill="#434040"/>
<path d="M154.187 109.996C154.458 111.168 154.421 112.427 154.285 113.611C154.15 114.796 153.866 116.079 153.151 117.041C152.954 117.313 153.102 117.732 153.373 117.893C153.694 118.078 154.026 117.942 154.224 117.67C155.05 116.548 155.358 115.067 155.518 113.71C155.678 112.353 155.691 110.971 155.395 109.651C155.222 108.873 154.014 109.194 154.199 109.984L154.187 109.996Z" fill="#434040"/>
<path d="M161.891 111.44C161.62 114.055 161.312 116.795 162.088 119.349C162.323 120.114 163.518 119.793 163.284 119.015C162.544 116.572 162.877 113.932 163.136 111.427C163.173 111.094 162.828 110.798 162.507 110.798C162.138 110.798 161.916 111.082 161.879 111.427L161.891 111.44Z" fill="#434040"/>
<path d="M169.337 112.106C170.656 114.426 170.459 117.387 170.2 119.941C170.163 120.274 170.508 120.57 170.829 120.57C171.199 120.57 171.421 120.286 171.458 119.941C171.741 117.152 171.864 113.994 170.422 111.477C170.028 110.773 168.943 111.403 169.35 112.106H169.337Z" fill="#434040"/>
<path d="M177.03 112.032C176.746 114.783 176.549 117.868 178.374 120.163C178.583 120.422 179.039 120.385 179.249 120.163C179.508 119.904 179.458 119.546 179.249 119.287C177.683 117.313 178.041 114.364 178.275 112.044C178.312 111.711 177.967 111.415 177.646 111.415C177.276 111.415 177.055 111.699 177.018 112.044L177.03 112.032Z" fill="#434040"/>
<path d="M182.454 111.847C183.243 113.241 184.007 114.66 184.488 116.19C184.735 116.967 184.883 117.732 184.957 118.534C184.969 118.732 185.03 118.966 185.018 119.151C185.018 119.25 184.957 119.336 184.944 119.435C184.895 119.805 185.117 120.138 185.487 120.212C186.276 120.36 186.608 119.163 185.819 119.015L186.091 119.25L186.177 119.571C186.165 119.756 186.214 119.497 186.226 119.435C186.263 119.225 186.251 119.04 186.226 118.83C186.189 118.435 186.152 118.041 186.103 117.658C186.004 116.868 185.77 116.091 185.511 115.351C185.006 113.907 184.279 112.55 183.527 111.23C183.132 110.527 182.047 111.156 182.454 111.859V111.847Z" fill="#434040"/>
<path d="M191.379 110.107C191.133 113.599 193.487 116.326 195.94 118.485C196.544 119.015 197.42 118.139 196.816 117.609C194.597 115.659 192.39 113.278 192.612 110.107C192.674 109.305 191.416 109.305 191.367 110.107H191.379Z" fill="#434040"/>
<path d="M197.16 109.54C198.553 109.786 199.515 111.193 200.168 112.365C200.871 113.648 201.463 115.203 201.611 116.597C201.648 116.93 201.869 117.226 202.239 117.226C202.547 117.226 202.893 116.943 202.868 116.597C202.695 114.87 202.054 113.155 201.216 111.649C200.427 110.243 199.207 108.639 197.518 108.33C197.185 108.269 196.852 108.417 196.754 108.762C196.667 109.071 196.852 109.466 197.185 109.527L197.16 109.54Z" fill="#434040"/>
<path d="M195.792 112.859C195.792 112.859 195.854 112.945 195.891 112.982L195.792 112.859C196.088 113.241 196.347 113.636 196.643 114.006C196.742 114.117 196.939 114.191 197.087 114.191C197.235 114.191 197.42 114.117 197.531 114.006C197.641 113.895 197.715 113.735 197.715 113.562L197.691 113.401C197.666 113.29 197.604 113.204 197.531 113.13C197.506 113.093 197.469 113.056 197.444 113.019L197.543 113.142C197.247 112.76 196.976 112.353 196.68 111.983C196.581 111.872 196.384 111.797 196.236 111.797C196.088 111.797 195.903 111.872 195.792 111.983C195.681 112.094 195.607 112.254 195.607 112.427L195.632 112.587C195.657 112.698 195.718 112.785 195.792 112.859Z" fill="#434040"/>
<path d="M180.013 115.03C180.075 115.203 180.124 115.376 180.174 115.548C180.247 115.77 180.334 115.992 180.457 116.202C180.543 116.338 180.679 116.449 180.827 116.486C180.975 116.523 181.172 116.511 181.308 116.424C181.443 116.338 181.554 116.215 181.591 116.054C181.628 115.894 181.616 115.721 181.53 115.573C181.48 115.487 181.443 115.4 181.394 115.314L181.456 115.462C181.357 115.215 181.295 114.956 181.209 114.709C181.184 114.623 181.147 114.561 181.098 114.5C181.049 114.426 180.999 114.376 180.926 114.339C180.79 114.265 180.593 114.228 180.445 114.277C180.297 114.327 180.149 114.426 180.075 114.561C180.001 114.697 179.952 114.882 180.013 115.042V115.03Z" fill="#434040"/>
<path d="M165.553 114.907C165.565 115.03 165.59 115.166 165.602 115.289L165.577 115.129C165.602 115.363 165.639 115.585 165.664 115.82C165.664 115.906 165.676 115.98 165.713 116.054C165.738 116.128 165.787 116.202 165.836 116.252C165.947 116.363 166.12 116.437 166.28 116.437C166.44 116.437 166.613 116.375 166.724 116.252C166.835 116.141 166.921 115.968 166.909 115.807C166.872 115.388 166.81 114.981 166.748 114.574C166.724 114.487 166.687 114.426 166.637 114.364C166.588 114.29 166.539 114.24 166.465 114.203C166.329 114.129 166.132 114.092 165.984 114.142C165.836 114.191 165.688 114.29 165.614 114.426L165.553 114.574C165.528 114.685 165.528 114.796 165.553 114.907Z" fill="#434040"/>
<path d="M149.626 112.044C149.577 112.501 149.527 112.957 149.49 113.414C149.478 113.562 149.577 113.747 149.675 113.858C149.786 113.969 149.959 114.043 150.119 114.043C150.279 114.043 150.452 113.981 150.563 113.858L150.661 113.735C150.723 113.636 150.748 113.537 150.748 113.414C150.797 112.957 150.846 112.501 150.883 112.044C150.896 111.896 150.797 111.711 150.698 111.6C150.587 111.489 150.415 111.415 150.255 111.415C150.094 111.415 149.922 111.477 149.811 111.6L149.712 111.723C149.651 111.822 149.626 111.921 149.626 112.044Z" fill="#434040"/>
<path d="M134.389 104.283C134.315 104.407 134.266 104.543 134.192 104.666C134.142 104.74 134.118 104.814 134.118 104.9C134.093 104.987 134.105 105.061 134.118 105.147C134.142 105.234 134.179 105.295 134.229 105.357C134.278 105.431 134.327 105.48 134.401 105.517L134.549 105.579C134.66 105.604 134.771 105.604 134.882 105.579L135.03 105.517C135.129 105.468 135.203 105.382 135.252 105.295C135.326 105.172 135.375 105.036 135.449 104.913C135.498 104.839 135.523 104.765 135.523 104.678C135.548 104.592 135.535 104.518 135.523 104.432C135.498 104.345 135.461 104.283 135.412 104.222C135.363 104.148 135.314 104.098 135.24 104.061L135.092 104C134.981 103.975 134.87 103.975 134.759 104L134.611 104.061C134.512 104.111 134.438 104.197 134.389 104.283Z" fill="#434040"/>
<path d="M169.411 59.3596C169.966 56.7562 169.941 54.0665 170.224 51.4261C170.533 48.5883 171.038 45.7752 171.593 42.9867C171.753 42.197 170.545 41.8639 170.397 42.6536C169.867 45.3556 169.374 48.0701 169.053 50.8092C168.733 53.5483 168.794 56.3367 168.215 59.0265C168.042 59.8038 169.251 60.1493 169.411 59.3596Z" fill="#434040"/>
<path d="M174.318 59.1376C174.441 56.127 174.268 53.1288 174.244 50.1183C174.231 48.724 174.244 47.3298 174.342 45.9356C174.429 44.7758 174.54 43.6036 174.293 42.4562C174.133 41.6665 172.925 41.9997 173.097 42.7893C173.344 43.9861 173.134 45.2446 173.06 46.4538C172.974 47.7863 172.974 49.1189 172.999 50.4514C173.036 53.3509 173.196 56.2504 173.073 59.1499C173.036 59.9519 174.281 59.9519 174.318 59.1499V59.1376Z" fill="#434040"/>
<path d="M171.125 42.888C172.358 42.8633 173.701 42.8633 174.811 42.2587C176.007 41.6171 176.524 40.3216 176.574 39.0261C176.672 36.4597 174.872 33.7329 172.123 33.6836C168.314 33.6219 166.958 38.3721 168.413 41.2963C168.795 42.049 169.411 42.6782 170.213 42.9743C171.162 43.3198 172.185 43.073 173.073 42.6535C173.8 42.3081 173.159 41.2346 172.444 41.5801C172.16 41.7158 171.741 41.8515 171.482 41.8886C171.445 41.8886 171.211 41.9009 171.088 41.8886C171.051 41.8886 170.841 41.8639 170.977 41.8886C170.903 41.8762 170.817 41.8639 170.743 41.8392C170.681 41.8269 170.607 41.8022 170.545 41.7775C170.459 41.7405 170.632 41.8145 170.545 41.7775C170.521 41.7775 170.496 41.7528 170.471 41.7405C170.41 41.7035 170.348 41.6788 170.287 41.6418C170.25 41.6171 170.065 41.4691 170.163 41.5554C170.065 41.4691 169.966 41.3827 169.88 41.284C169.855 41.2593 169.744 41.1236 169.781 41.1606C169.806 41.1976 169.695 41.0372 169.67 41.0002C169.596 40.8768 169.535 40.7658 169.461 40.6424C169.448 40.6054 169.424 40.5684 169.411 40.5437C169.374 40.4573 169.448 40.63 169.411 40.5437C169.374 40.4573 169.35 40.3833 169.325 40.2969C169.226 39.9885 169.152 39.68 169.103 39.3592C169.115 39.4579 169.103 39.2605 169.091 39.2111C169.091 39.1248 169.078 39.0507 169.078 38.9644C169.078 38.7916 169.078 38.6066 169.078 38.4338C169.091 38.0513 169.115 37.9033 169.202 37.5331C169.239 37.3727 169.288 37.2123 169.337 37.0519C169.399 36.8545 169.436 36.7682 169.498 36.6571C169.559 36.5214 169.633 36.3857 169.719 36.2623C169.756 36.1883 169.806 36.1266 169.855 36.0649C169.929 35.9538 169.917 35.9785 169.954 35.9292C170.176 35.67 170.361 35.4973 170.582 35.3616C170.891 35.1642 171.039 35.1025 171.396 35.0161C172.148 34.831 173.122 35.0038 173.837 35.5467C174.638 36.1636 175.107 37.1383 175.279 38.113C175.452 39.0878 175.329 40.4326 174.416 41.0619C173.504 41.6911 172.197 41.6418 171.125 41.6541C170.324 41.6665 170.324 42.9126 171.125 42.9003V42.888Z" fill="#434040"/>
<path d="M170.053 36.5215C169.843 37.1014 169.843 37.7553 170.003 38.3475C170.188 38.9891 170.57 39.532 171.113 39.9022C171.384 40.0872 171.815 39.9638 171.963 39.6801C172.136 39.3593 172.025 39.0261 171.742 38.8287C171.717 38.8164 171.631 38.7424 171.717 38.8164C171.803 38.8904 171.705 38.804 171.692 38.7917C171.655 38.7547 171.606 38.7177 171.569 38.6807C171.532 38.6436 171.495 38.5943 171.458 38.5573C171.372 38.4586 171.52 38.6436 171.483 38.582C171.47 38.5573 171.446 38.5326 171.433 38.5079C171.372 38.4092 171.322 38.3105 171.261 38.1995C171.224 38.1378 171.322 38.3475 171.273 38.2241C171.273 38.1995 171.261 38.1748 171.248 38.1501C171.224 38.0884 171.211 38.0391 171.199 37.9774C171.187 37.928 171.174 37.8663 171.162 37.817C171.162 37.7923 171.162 37.7553 171.15 37.7306C171.137 37.6442 171.15 37.7676 171.15 37.78C171.15 37.6689 171.137 37.5455 171.137 37.4222C171.137 37.3605 171.137 37.2988 171.15 37.2371C171.15 37.163 171.125 37.3975 171.15 37.2741C171.15 37.2494 171.15 37.2247 171.162 37.2001C171.187 37.0767 171.224 36.9533 171.261 36.8423C171.372 36.5338 171.137 36.1513 170.829 36.0773C170.484 36.0032 170.176 36.1883 170.065 36.5091L170.053 36.5215Z" fill="#434040"/>
<path d="M163.408 41.3211C163.63 41.2841 163.852 41.1854 164.049 41.0867C164.234 41.0003 164.406 40.8893 164.579 40.7905C164.715 40.7042 164.826 40.5685 164.863 40.4204C164.899 40.2723 164.887 40.0749 164.801 39.9392C164.715 39.8035 164.591 39.6924 164.431 39.6554C164.271 39.6184 164.098 39.6307 163.95 39.7171C163.741 39.8405 163.519 39.9762 163.297 40.0749L163.445 40.0132C163.322 40.0626 163.198 40.0996 163.075 40.1243C162.989 40.149 162.927 40.186 162.865 40.2353C162.791 40.2847 162.742 40.334 162.705 40.4081C162.631 40.5438 162.594 40.7412 162.644 40.8892C162.693 41.0373 162.791 41.1854 162.927 41.2594L163.075 41.3211C163.186 41.3458 163.297 41.3458 163.408 41.3211Z" fill="#434040"/>
<path d="M162.742 31.475C163.174 31.8945 163.716 32.129 164.246 32.3634C164.406 32.4374 164.554 32.4744 164.727 32.4251C164.875 32.3881 165.023 32.277 165.097 32.1413C165.171 31.9933 165.208 31.8205 165.158 31.6601C165.109 31.5121 165.023 31.3517 164.875 31.29C164.468 31.1049 164.037 30.9322 163.679 30.6484L163.802 30.7471C163.741 30.6977 163.679 30.6484 163.617 30.5867C163.506 30.4756 163.334 30.4016 163.174 30.4016C163.026 30.4016 162.841 30.4756 162.73 30.5867C162.619 30.6977 162.545 30.8581 162.545 31.0309C162.545 31.2036 162.607 31.3517 162.73 31.475H162.742Z" fill="#434040"/>
<path d="M170.015 26.1696C170.064 26.256 170.114 26.3547 170.163 26.441C170.188 26.4904 170.212 26.5397 170.225 26.5768C170.175 26.4534 170.286 26.7001 170.225 26.5768C170.299 26.7618 170.373 26.9593 170.422 27.1567C170.545 27.5392 170.644 27.9216 170.767 28.3041C170.866 28.6126 171.199 28.847 171.531 28.736C171.84 28.6373 172.074 28.3041 171.963 27.971C171.692 27.1443 171.519 26.293 171.075 25.5403C170.915 25.2566 170.508 25.1332 170.225 25.3183C169.941 25.5033 169.818 25.8735 170.003 26.1696H170.015Z" fill="#434040"/>
<path d="M179.223 30.4386C179.803 30.1055 180.407 29.8341 181.023 29.5626C181.159 29.5009 181.27 29.3282 181.307 29.1925C181.344 29.0444 181.331 28.847 181.245 28.7113C181.159 28.5755 181.036 28.4645 180.875 28.4275C180.703 28.3905 180.555 28.4275 180.395 28.4892C179.791 28.7606 179.174 29.0321 178.595 29.3652C178.311 29.5256 178.188 29.9328 178.373 30.2165C178.558 30.5003 178.928 30.6114 179.223 30.4386Z" fill="#434040"/>
<path d="M180.949 38.2859C181.307 38.3599 181.664 38.3846 182.022 38.3722C182.318 38.3722 182.626 38.3599 182.922 38.3969L182.762 38.3722C182.836 38.3722 182.897 38.3969 182.971 38.4092C183.292 38.4833 183.661 38.3105 183.735 37.9774C183.809 37.6566 183.637 37.2865 183.304 37.2124C182.663 37.0644 181.997 37.1877 181.356 37.1014L181.516 37.1261C181.442 37.1261 181.356 37.1014 181.282 37.089C180.962 37.0273 180.592 37.1877 180.518 37.5209C180.444 37.8293 180.617 38.2118 180.949 38.2859Z" fill="#434040"/>
<path d="M178.065 42.9003C178.521 43.2828 179.014 43.6283 179.557 43.8751C179.717 43.9491 179.865 43.9861 180.037 43.9367C180.185 43.8997 180.333 43.7887 180.407 43.653C180.481 43.5049 180.518 43.3322 180.469 43.1718C180.42 43.0237 180.333 42.8633 180.185 42.8016C179.766 42.6165 179.384 42.3698 179.014 42.086L179.138 42.1847C179.064 42.1354 179.002 42.0737 178.928 42.0243C178.792 41.9133 178.657 41.8392 178.484 41.8392C178.336 41.8392 178.151 41.9133 178.04 42.0243C177.929 42.1354 177.855 42.2957 177.855 42.4685C177.855 42.6289 177.917 42.8016 178.04 42.9127L178.065 42.9003Z" fill="#434040"/>
<path d="M161.867 72.1545C164.073 72.3642 166.268 72.685 168.487 72.685C170.422 72.685 172.493 71.9324 174.355 72.685C175.094 72.9812 175.415 71.7843 174.687 71.4882C172.764 70.7109 170.718 71.4142 168.733 71.4389C166.428 71.4759 164.147 71.1304 161.867 70.9083C161.066 70.8343 161.078 72.0805 161.867 72.1545Z" fill="#434040"/>
<path d="M173.529 71.92C172.431 77.4106 169.806 82.3583 167.562 87.4416C167.242 88.1696 168.314 88.8112 168.635 88.0709C170.915 82.9011 173.603 77.8424 174.724 72.2532C174.885 71.4635 173.676 71.1304 173.529 71.92Z" fill="#434040"/>
<path d="M168.598 88.4781C169.535 88.6631 170.447 88.5151 171.384 88.367C172.222 88.2313 173.06 88.1696 173.862 88.5028C174.17 88.6385 174.552 88.367 174.626 88.0709C174.724 87.7131 174.503 87.4293 174.194 87.3059C173.294 86.9235 172.345 86.9851 171.396 87.1209C170.582 87.2319 169.744 87.4417 168.918 87.2813C168.585 87.2196 168.24 87.38 168.154 87.7131C168.068 88.0216 168.253 88.4164 168.585 88.4781H168.598Z" fill="#434040"/>
<path d="M173.898 87.8489C171.618 92.4757 168.4 96.5597 166.12 101.174C165.762 101.89 166.835 102.519 167.192 101.804C169.473 97.1766 172.69 93.0927 174.971 88.4781C175.328 87.7625 174.256 87.1332 173.898 87.8489Z" fill="#434040"/>
<path d="M167.143 101.89C167.094 98.6202 167.526 95.3629 167.069 92.1056C167.02 91.7724 166.601 91.5874 166.305 91.6737C165.948 91.7724 165.824 92.1056 165.874 92.4387C166.305 95.5726 165.849 98.7559 165.898 101.902C165.911 102.704 167.156 102.704 167.143 101.902V101.89Z" fill="#434040"/>
<path d="M166.083 91.5257C165.244 91.538 164.418 91.427 163.58 91.4393C163.26 91.4393 162.939 91.7231 162.952 92.0686C162.964 92.414 163.223 92.6978 163.58 92.6978C164.418 92.6855 165.244 92.7965 166.083 92.7842C166.403 92.7842 166.724 92.5004 166.711 92.1549C166.699 91.8095 166.44 91.5257 166.083 91.5257Z" fill="#434040"/>
<path d="M163.667 92.0685C163.532 85.2084 162.891 78.373 162.755 71.5129C162.743 70.7109 161.498 70.7109 161.51 71.5129C161.645 78.373 162.286 85.2084 162.422 92.0685C162.434 92.8705 163.679 92.8705 163.667 92.0685Z" fill="#434040"/>
<path d="M229.101 212.725C228.152 210.726 226.204 208.912 224.355 207.444C223.566 206.901 222.79 206.358 222.05 205.778C221.766 205.556 221.495 205.334 221.224 205.112C219.486 203.878 217.452 203.286 215.43 202.496C214.247 202.607 213.273 202.694 212.324 204.446C210.043 208.678 215.011 213.663 217.908 216.007C219.979 217.685 225.81 222.608 227.967 218.277C228.177 217.858 228.325 217.45 228.423 217.043C229.163 216.229 229.483 215.057 229.311 213.625C229.274 213.317 229.2 213.021 229.114 212.737L229.101 212.725Z" fill="#CCE7E5"/>
<path d="M122.567 218.005C122.567 218.005 122.394 194.785 124.219 194.39C126.056 193.995 157.035 195.723 157.035 195.723L184.611 196.71C184.611 196.71 187.508 195.871 187.015 202.126C186.522 208.382 185.129 235.797 185.129 235.797C185.129 235.797 186.066 239.647 180.827 239.412C175.587 239.178 126.093 236.932 126.093 236.932C126.093 236.932 121.593 236.636 121.827 232.787C122.061 228.925 122.555 218.005 122.555 218.005H122.567Z" fill="#CCE7E5"/>
<path d="M184.599 200.744C185.092 195.377 182.207 196.093 182.207 196.093L154.631 195.241C154.631 195.241 123.639 193.761 121.815 194.094C121.051 194.23 121.433 195.476 121.211 199.535L177.4 201.793C177.4 201.793 184.402 202.99 184.611 200.744H184.599Z" fill="#2965AA"/>
<path d="M182.811 232.725L119.411 229.912C119.275 232.849 119.337 230.998 119.226 232.725C118.991 236.587 123.491 236.871 123.491 236.871C123.491 236.871 172.986 239.116 178.225 239.351C183.464 239.585 182.527 235.736 182.527 235.736C182.527 235.736 182.688 235.143 182.811 232.713V232.725Z" fill="#2965AA"/>
<path d="M120.237 194.797C119.657 207.456 119.09 220.103 118.523 232.762C118.486 233.564 119.731 233.564 119.768 232.762C120.335 220.103 120.915 207.456 121.482 194.797C121.519 193.995 120.274 193.995 120.237 194.797Z" fill="#434040"/>
<path d="M183.624 197.672C183.057 210.331 182.478 222.978 181.911 235.637C181.874 236.439 183.119 236.439 183.156 235.637C183.723 222.978 184.302 210.331 184.87 197.672C184.907 196.87 183.661 196.87 183.624 197.672Z" fill="#434040"/>
<path d="M125.34 193.428C144.201 194.279 163.062 195.13 181.911 195.994C182.712 196.031 182.712 194.785 181.911 194.748C163.05 193.896 144.189 193.033 125.34 192.181C124.539 192.144 124.539 193.391 125.34 193.428Z" fill="#434040"/>
<path d="M123.405 236.217C142.266 237.068 161.127 237.932 179.976 238.783C180.777 238.82 180.777 237.574 179.976 237.537C161.115 236.686 142.253 235.822 123.405 234.971C122.603 234.934 122.603 236.18 123.405 236.217Z" fill="#434040"/>
<path d="M125.796 192.194C124.872 192.144 123.947 192.009 123.01 192.033C122.271 192.058 121.494 192.169 120.952 192.712C120.076 193.588 120.274 194.995 120.385 196.105C120.422 196.438 120.644 196.734 121.013 196.734C121.322 196.734 121.667 196.45 121.642 196.105C121.593 195.587 121.531 195.069 121.543 194.538C121.543 194.464 121.543 194.402 121.556 194.328C121.556 194.267 121.58 194.18 121.556 194.291C121.568 194.18 121.593 194.069 121.63 193.958C121.63 193.921 121.716 193.736 121.642 193.884C121.667 193.847 121.679 193.798 121.704 193.761C121.728 193.711 121.765 193.662 121.802 193.613C121.716 193.748 121.802 193.613 121.839 193.588C121.864 193.563 122 193.465 121.876 193.551C121.926 193.514 121.975 193.489 122.024 193.465C122.049 193.452 122.221 193.378 122.086 193.428C122.147 193.403 122.209 193.378 122.271 193.366C122.431 193.317 122.517 193.317 122.616 193.304C122.825 193.292 123.023 193.28 123.232 193.28C124.083 193.28 124.933 193.403 125.796 193.44C126.129 193.452 126.425 193.144 126.425 192.811C126.425 192.465 126.142 192.206 125.796 192.181V192.194Z" fill="#434040"/>
<path d="M179.581 195.871C180.432 195.908 181.282 195.871 182.133 195.932C182.466 195.957 182.786 196.019 183.095 196.117C183.23 196.167 183.033 196.08 183.144 196.142C183.206 196.179 183.255 196.204 183.316 196.241C183.378 196.278 183.366 196.278 183.304 196.228C183.329 196.253 183.353 196.265 183.378 196.29C183.415 196.327 183.452 196.376 183.489 196.401C183.514 196.438 183.514 196.426 183.464 196.364C183.477 196.389 183.501 196.413 183.514 196.438C183.538 196.487 183.563 196.537 183.6 196.586C183.514 196.438 183.6 196.574 183.6 196.623C183.612 196.673 183.625 196.722 183.637 196.771C183.649 196.833 183.662 196.895 183.674 196.944C183.649 196.759 183.674 196.969 183.674 197.006C183.674 197.117 183.674 197.228 183.674 197.339C183.674 197.45 183.662 197.573 183.649 197.697C183.649 197.734 183.649 197.771 183.649 197.795C183.649 197.709 183.649 197.721 183.649 197.795C183.649 197.869 183.625 197.931 183.612 198.005C183.563 198.277 183.514 198.536 183.464 198.795C183.403 199.128 183.551 199.473 183.896 199.56C184.204 199.646 184.599 199.461 184.66 199.128C184.833 198.227 185.092 197.215 184.808 196.302C184.66 195.821 184.364 195.426 183.945 195.155C183.415 194.809 182.737 194.735 182.108 194.686C181.27 194.612 180.432 194.661 179.594 194.624C179.261 194.612 178.965 194.92 178.965 195.254C178.965 195.599 179.248 195.858 179.594 195.883L179.581 195.871Z" fill="#434040"/>
<path d="M123.874 234.687C123.023 234.65 122.172 234.687 121.322 234.625C120.989 234.6 120.668 234.539 120.36 234.44C120.225 234.391 120.422 234.477 120.311 234.415C120.249 234.378 120.2 234.354 120.138 234.317C120.077 234.28 120.089 234.28 120.151 234.329C120.126 234.304 120.101 234.292 120.077 234.267C120.04 234.23 120.003 234.181 119.966 234.156C119.941 234.119 119.941 234.132 119.99 234.193C119.978 234.169 119.953 234.144 119.941 234.119C119.916 234.07 119.892 234.021 119.855 233.971C119.941 234.119 119.855 233.984 119.855 233.934C119.842 233.885 119.83 233.836 119.818 233.786C119.805 233.724 119.793 233.663 119.781 233.613C119.805 233.798 119.781 233.589 119.781 233.552C119.781 233.441 119.781 233.33 119.781 233.219C119.781 233.108 119.793 232.984 119.805 232.861C119.805 232.824 119.805 232.787 119.805 232.762C119.805 232.836 119.805 232.848 119.805 232.762C119.805 232.688 119.83 232.626 119.842 232.552C119.892 232.281 119.941 232.022 119.99 231.763C120.052 231.43 119.904 231.084 119.559 230.998C119.251 230.911 118.856 231.096 118.795 231.43C118.622 232.33 118.363 233.342 118.647 234.255C118.795 234.736 119.09 235.131 119.522 235.402C120.052 235.748 120.73 235.822 121.346 235.871C122.185 235.945 123.023 235.896 123.861 235.933C124.194 235.945 124.49 235.637 124.49 235.304C124.49 234.958 124.206 234.699 123.861 234.675L123.874 234.687Z" fill="#434040"/>
<path d="M177.658 238.376C178.583 238.425 179.507 238.573 180.444 238.536C181.184 238.512 181.948 238.401 182.503 237.858C183.378 236.982 183.181 235.575 183.07 234.465C183.033 234.132 182.811 233.836 182.441 233.836C182.133 233.836 181.788 234.119 181.812 234.465C181.862 234.983 181.923 235.501 181.911 236.032C181.911 236.106 181.911 236.168 181.899 236.242C181.899 236.303 181.874 236.39 181.899 236.279C181.886 236.39 181.862 236.501 181.825 236.612C181.825 236.649 181.738 236.834 181.812 236.686C181.788 236.723 181.775 236.772 181.751 236.809C181.726 236.858 181.689 236.908 181.652 236.957C181.738 236.821 181.652 236.957 181.615 236.982C181.59 237.007 181.455 237.105 181.578 237.019C181.529 237.056 181.48 237.081 181.43 237.105C181.406 237.118 181.233 237.192 181.369 237.142C181.307 237.167 181.245 237.192 181.184 237.204C181.023 237.253 180.937 237.253 180.838 237.266C180.629 237.278 180.432 237.29 180.222 237.29C179.372 237.29 178.521 237.167 177.658 237.13C177.325 237.118 177.029 237.426 177.029 237.759C177.029 238.117 177.313 238.364 177.658 238.388V238.376Z" fill="#434040"/>
<path d="M121.482 200.004C142.118 200.942 162.754 201.879 183.391 202.817C184.192 202.854 184.192 201.608 183.391 201.571C162.754 200.633 142.118 199.695 121.482 198.758C120.681 198.721 120.681 199.967 121.482 200.004Z" fill="#434040"/>
<path d="M120.138 229.517C140.774 230.455 161.411 231.393 182.047 232.318C182.848 232.355 182.848 231.109 182.047 231.072C161.411 230.134 140.774 229.196 120.138 228.271C119.337 228.234 119.337 229.48 120.138 229.517Z" fill="#434040"/>
<path d="M144.842 237.08C144.756 239.042 144.67 240.992 144.571 242.954C144.534 243.756 145.779 243.756 145.816 242.954C145.902 240.992 145.989 239.042 146.087 237.08C146.124 236.279 144.879 236.279 144.842 237.08Z" fill="#434040"/>
<path d="M155.123 237.833C155.049 239.314 154.988 240.782 154.926 242.263C154.914 242.596 155.222 242.892 155.555 242.892C155.9 242.892 156.159 242.608 156.184 242.263C156.245 240.782 156.319 239.314 156.381 237.833C156.393 237.5 156.085 237.204 155.752 237.204C155.407 237.204 155.148 237.488 155.123 237.833Z" fill="#434040"/>
<path d="M145.78 243.497C148.923 243.632 152.067 243.78 155.198 243.928C155.999 243.965 155.999 242.719 155.198 242.682C152.054 242.546 148.911 242.398 145.78 242.25C144.978 242.213 144.978 243.459 145.78 243.497Z" fill="#434040"/>
<path d="M139.64 242.929C147.11 243.274 154.569 243.607 162.039 243.941C162.84 243.978 162.84 242.731 162.039 242.694C154.569 242.361 147.11 242.016 139.64 241.683C138.839 241.646 138.839 242.892 139.64 242.929Z" fill="#434040"/>
<path d="M139.11 242.411C139.049 243.657 138.999 244.915 138.938 246.162C138.926 246.482 139.234 246.803 139.567 246.791C139.912 246.778 140.171 246.519 140.195 246.162C140.257 244.915 140.306 243.657 140.368 242.411C140.38 242.09 140.072 241.769 139.739 241.781C139.394 241.794 139.135 242.053 139.11 242.411Z" fill="#434040"/>
<path d="M140.133 247.001C147.468 247.334 154.815 247.667 162.15 248C162.951 248.037 162.951 246.791 162.15 246.754C154.815 246.421 147.468 246.088 140.133 245.754C139.332 245.717 139.332 246.964 140.133 247.001Z" fill="#434040"/>
<path d="M161.694 243.534C161.633 244.817 161.583 246.1 161.522 247.383C161.51 247.704 161.818 248.025 162.151 248.012C162.496 248 162.755 247.741 162.779 247.383C162.841 246.1 162.89 244.817 162.952 243.534C162.964 243.213 162.656 242.892 162.323 242.904C161.978 242.917 161.719 243.176 161.694 243.534Z" fill="#434040"/>
<path d="M139.455 208.851C136.657 211.405 133.92 214.02 131.122 216.574C130.53 217.117 131.418 217.993 131.997 217.45C134.796 214.896 137.532 212.281 140.331 209.727C140.922 209.184 140.035 208.308 139.455 208.851Z" fill="#434040"/>
<path d="M132.084 209.393C134.636 212.194 137.138 215.032 139.69 217.833C140.232 218.425 141.108 217.549 140.565 216.957C138.013 214.156 135.511 211.318 132.959 208.517C132.417 207.925 131.541 208.801 132.084 209.393Z" fill="#434040"/>
<path d="M170.422 210.257C167.624 212.811 164.887 215.414 162.089 217.981C161.497 218.524 162.385 219.4 162.964 218.857C165.762 216.303 168.499 213.687 171.297 211.133C171.889 210.59 171.002 209.714 170.422 210.257Z" fill="#434040"/>
<path d="M163.038 210.8C165.59 213.601 168.092 216.439 170.644 219.239C171.186 219.832 172.062 218.956 171.519 218.363C168.968 215.563 166.465 212.725 163.913 209.924C163.371 209.332 162.496 210.22 163.038 210.8Z" fill="#434040"/>
<path d="M140.121 224.175C147.912 224.533 155.691 224.878 163.482 225.236C164.283 225.273 164.283 224.027 163.482 223.99C155.691 223.632 147.912 223.286 140.121 222.929C139.32 222.892 139.32 224.138 140.121 224.175Z" fill="#434040"/>
<path d="M218.192 218.413C215.862 215.723 212.903 213.453 211.214 210.269C210.327 208.591 210.093 206.815 211.375 205.26C212.459 203.952 214.161 203.224 215.837 203.619C218.993 204.347 221.533 207.308 223.628 209.591C225.896 212.046 229.299 215.118 227.289 218.758C226.205 220.732 224.282 222.188 222.026 221.238C220.176 220.461 218.734 218.857 217.403 217.413C216.86 216.821 215.973 217.709 216.528 218.289C218.993 220.967 222.889 224.705 226.525 221.645C228.214 220.226 229.373 218.055 229.114 215.809C228.855 213.564 227.487 211.898 226.02 210.331C223.419 207.555 220.793 204.199 217.156 202.731C215.443 202.04 213.594 202.101 212.003 203.076C210.413 204.051 209.082 205.902 209.168 207.863C209.267 210.097 210.783 212.145 212.164 213.786C213.779 215.711 215.665 217.389 217.304 219.289C217.834 219.893 218.71 219.017 218.179 218.413H218.192Z" fill="#434040"/>
<path d="M210.573 205.68C213.334 206.913 216.145 208.653 218.019 211.084C218.228 211.355 218.549 211.491 218.869 211.306C219.128 211.158 219.301 210.726 219.091 210.455C217.082 207.839 214.185 205.939 211.201 204.606C210.893 204.47 210.536 204.52 210.351 204.828C210.191 205.1 210.265 205.544 210.573 205.68Z" fill="#434040"/>
<path d="M213.79 214.144C215.516 213.687 217.192 212.996 218.573 211.836C219.954 210.677 220.829 209.085 221.186 207.345C221.347 206.568 220.151 206.222 219.991 207.012C219.658 208.567 218.918 209.924 217.698 210.96C216.477 211.997 214.973 212.552 213.469 212.947C212.693 213.157 213.026 214.353 213.802 214.144H213.79Z" fill="#434040"/>
<path d="M227.203 220.72C228.09 220.979 228.583 222.053 229.237 222.657C229.853 223.225 230.556 223.743 231.295 224.125C232.812 224.915 234.501 225.211 236.202 224.964C239.382 224.52 242.082 222.632 243.968 220.091C248.443 214.107 248.48 206.05 246.483 199.14C242.538 185.506 230.383 172.921 215.935 171.046C209.007 170.145 201.426 172.206 196.446 177.289C191.749 182.076 190.245 189.8 195.632 194.711C197.913 196.784 201.192 198.227 204.286 197.438C206.468 196.882 208.551 195.13 208.81 192.798C209.291 188.443 204.2 185.038 200.255 185.753C197.074 186.333 195.053 189.27 193.881 192.058C192.378 195.624 192.032 199.609 192.193 203.434C192.267 205.371 192.488 207.296 192.809 209.208C193.093 210.849 193.586 212.453 193.832 214.094C193.98 215.094 194.165 216.55 193.376 217.339C192.636 218.08 191.367 217.919 190.417 217.808C188.408 217.574 186.3 217.376 184.414 216.636C183.662 216.34 183.341 217.549 184.081 217.833C185.437 218.376 186.879 218.573 188.322 218.758C189.616 218.931 190.972 219.264 192.279 219.091C194.781 218.771 195.373 216.55 195.114 214.341C194.781 211.565 193.918 208.888 193.635 206.099C193.302 202.94 193.265 199.708 193.857 196.574C194.744 191.799 198.319 184.519 204.274 187.616C205.975 188.505 207.614 190.269 207.602 192.305C207.577 195.303 204.002 196.734 201.451 196.327C198.344 195.834 195.447 193.514 194.177 190.664C192.698 187.357 193.376 183.717 195.274 180.732C198.862 175.081 205.962 172.107 212.484 172.07C225.6 171.984 237.287 182.039 242.871 193.292C246.36 200.337 248.147 209.196 244.621 216.587C243.13 219.708 240.738 222.435 237.336 223.434C235.179 224.064 233.009 223.829 231.135 222.558C229.816 221.67 229.113 219.955 227.548 219.498C226.771 219.276 226.451 220.473 227.215 220.695L227.203 220.72Z" fill="#434040"/>
<path d="M113.211 152.23C113.112 151.181 113.063 150.885 112.853 149.849C112.828 149.713 112.754 149.627 112.668 149.54C112.619 149.244 112.57 148.96 112.508 148.664C112.471 148.492 112.385 148.381 112.274 148.307C112.138 147.64 111.99 146.962 111.83 146.295C111.682 145.679 110.622 145.617 110.523 146.295C110.462 146.727 110.412 147.171 110.351 147.603C110.351 147.455 110.351 147.307 110.326 147.147C110.264 146.369 109.278 146.246 108.995 146.962C107.404 151.046 105.37 154.932 104.088 159.152C104.002 159.448 104.113 159.682 104.31 159.831C104.273 159.979 104.248 160.139 104.236 160.336C104.187 161.151 105.309 161.188 105.567 160.522C106.159 158.967 106.911 157.486 107.712 156.043C107.984 156.154 108.329 156.104 108.514 155.808C108.514 155.845 108.501 155.895 108.489 155.932C108.403 156.376 108.773 156.758 109.142 156.795C109.044 156.956 108.945 157.128 108.834 157.326C108.551 157.289 108.255 157.412 108.144 157.795C107.934 158.486 107.762 159.177 107.589 159.868C107.491 160.176 107.404 160.484 107.355 160.805C106.603 163.273 105.876 165.741 105.604 168.319C104.754 170.244 103.903 172.268 104.064 174.229C104.088 174.525 104.248 174.809 104.557 174.883C105.629 175.13 105.506 175.13 106.591 175.081C106.837 175.081 107.133 174.896 107.232 174.661C107.577 174.834 108.119 174.649 108.255 174.254C109.204 171.626 109.549 168.887 109.931 166.148C109.931 166.148 109.931 166.135 109.931 166.123C110.203 165.148 110.474 164.186 110.72 163.211C111.029 163.248 111.374 163.1 111.46 162.742C111.657 161.916 111.842 161.089 112.002 160.262C112.483 158.893 112.767 157.536 112.902 156.166C113.063 156.067 113.174 155.895 113.174 155.623C113.161 154.636 113.112 153.661 113.026 152.699C113.124 152.588 113.186 152.44 113.174 152.242L113.211 152.23Z" fill="#CCE7E5"/>
<path d="M106.628 156.154C105.099 162.286 103.571 168.406 102.042 174.538C101.845 175.315 103.053 175.648 103.238 174.871C104.767 168.739 106.295 162.619 107.824 156.487C108.021 155.71 106.813 155.376 106.628 156.154Z" fill="#434040"/>
<path d="M111.559 157.387C110.03 163.52 108.501 169.639 106.973 175.772C106.776 176.549 107.984 176.882 108.169 176.105C109.697 169.973 111.226 163.853 112.754 157.721C112.952 156.943 111.744 156.61 111.559 157.387Z" fill="#434040"/>
<path d="M107.022 175.303C105.604 174.945 104.224 174.464 102.806 174.106C102.486 174.02 102.128 174.217 102.042 174.538C101.955 174.859 102.153 175.216 102.473 175.303C103.891 175.661 105.272 176.142 106.689 176.5C107.01 176.586 107.367 176.388 107.454 176.068C107.54 175.747 107.343 175.377 107.022 175.303Z" fill="#434040"/>
<path d="M111.707 157.091C110.388 156.758 109.056 156.425 107.737 156.092C107.417 156.018 107.047 156.191 106.973 156.524C106.899 156.857 107.072 157.202 107.404 157.289C108.724 157.622 110.055 157.955 111.374 158.288C111.694 158.362 112.064 158.19 112.138 157.856C112.212 157.523 112.04 157.178 111.707 157.091Z" fill="#434040"/>
<path d="M113.136 157.955C113.728 155.882 113.938 153.686 113.802 151.539C113.666 149.392 113.198 147.282 111.978 145.543C111.521 144.889 110.437 145.518 110.905 146.172C112.027 147.788 112.458 149.787 112.569 151.724C112.68 153.661 112.483 155.722 111.941 157.634C111.719 158.412 112.927 158.732 113.136 157.967V157.955Z" fill="#434040"/>
<path d="M110.622 145.185C106.357 149.281 104.878 154.994 102.449 160.201C102.116 160.929 103.189 161.558 103.522 160.83C105.913 155.747 107.331 150.083 111.51 146.073C112.089 145.518 111.202 144.63 110.634 145.197L110.622 145.185Z" fill="#434040"/>
<path d="M103.188 161.348C103.595 161.447 104.014 161.558 104.421 161.657C104.581 161.694 104.754 161.681 104.902 161.595C105.025 161.521 105.148 161.373 105.185 161.225C105.222 161.064 105.21 160.892 105.124 160.743C105.038 160.595 104.914 160.497 104.754 160.46C104.347 160.361 103.928 160.25 103.521 160.151C103.361 160.114 103.188 160.127 103.04 160.213C102.917 160.287 102.794 160.435 102.757 160.583C102.72 160.743 102.732 160.916 102.819 161.064C102.905 161.212 103.028 161.311 103.188 161.348Z" fill="#434040"/>
<path d="M102.017 174.711C102.054 177.696 102.301 180.719 101.869 183.68C101.82 184.014 101.955 184.347 102.301 184.445C102.597 184.532 103.016 184.347 103.065 184.014C103.521 180.929 103.299 177.82 103.25 174.711C103.25 173.909 101.992 173.909 102.005 174.711H102.017Z" fill="#434040"/>
<path d="M107.133 175.5C104.753 177.746 103.176 180.855 101.93 183.841C101.795 184.149 102.066 184.532 102.362 184.606C102.719 184.704 103.003 184.482 103.126 184.174C103.718 182.743 104.421 181.361 105.21 180.028C105.999 178.696 106.886 177.437 108.008 176.376C108.587 175.821 107.712 174.945 107.133 175.5Z" fill="#434040"/>
<path d="M106.159 156.314C105.789 157.795 105.456 159.3 104.594 160.546C104.396 160.818 104.544 161.237 104.815 161.397C105.124 161.583 105.481 161.447 105.666 161.175C106.591 159.855 106.973 158.19 107.355 156.647C107.441 156.326 107.244 155.969 106.923 155.882C106.603 155.796 106.233 155.993 106.159 156.314Z" fill="#434040"/>
<path d="M104.655 178.955C104.26 178.77 103.866 178.585 103.447 178.474C103.25 178.424 103.065 178.474 102.904 178.585C102.744 178.696 102.67 178.869 102.658 179.078C102.621 179.559 102.732 180.028 102.769 180.497C102.781 180.67 102.83 180.818 102.954 180.941C103.065 181.052 103.237 181.126 103.397 181.126C103.558 181.126 103.73 181.065 103.841 180.941C103.952 180.818 104.039 180.67 104.026 180.497C103.989 180.028 103.878 179.559 103.915 179.078L103.126 179.683C103.324 179.732 103.508 179.806 103.693 179.88L103.545 179.819C103.706 179.893 103.866 179.967 104.026 180.041C104.186 180.115 104.334 180.152 104.507 180.102C104.655 180.065 104.803 179.954 104.877 179.819C104.951 179.671 104.988 179.498 104.938 179.337C104.889 179.189 104.803 179.029 104.655 178.967V178.955Z" fill="#434040"/>
<path d="M103.546 127.553C99.4035 134.549 93.8068 140.459 88.2348 146.32C82.6628 152.181 76.8195 158.831 71.3584 165.309C60.1651 178.572 49.4648 192.243 38.6412 205.803C32.4528 213.564 26.2274 221.288 19.8541 228.888C19.3364 229.505 20.2239 230.381 20.7294 229.764C32.1076 216.179 43.0175 202.213 54.0876 188.381C65.1577 174.55 75.747 161.262 87.6677 148.714C93.7945 142.273 100.069 135.869 104.63 128.17C105.037 127.479 103.965 126.85 103.558 127.541L103.546 127.553Z" fill="#434040"/>
<path d="M222.173 141.693C231.246 159.25 244.239 174.353 256.9 189.368C260.462 193.588 264 197.82 267.464 202.126C267.97 202.755 268.845 201.867 268.34 201.25C256.074 185.988 242.624 171.601 231.702 155.29C228.633 150.7 225.785 145.974 223.246 141.064C222.876 140.348 221.803 140.977 222.173 141.693Z" fill="#434040"/>
<path d="M153.99 157.4C153.374 162.656 152.437 167.875 150.871 172.946C150.637 173.711 151.833 174.044 152.067 173.279C153.669 168.109 154.594 162.767 155.223 157.412C155.321 156.622 154.064 156.622 153.978 157.412L153.99 157.4Z" fill="#434040"/>
<path d="M38.382 132.106C37.667 133.032 37.3711 134.315 37.8272 135.425C38.234 136.425 39.1093 137.19 40.2064 137.276C41.4145 137.387 42.3761 136.437 42.8815 135.425C43.1897 134.821 43.313 134.154 43.1897 133.488C43.0911 132.97 42.7829 132.464 42.3884 132.106C41.3406 131.181 39.775 131.119 38.6162 131.872C38.345 132.045 38.2094 132.427 38.3943 132.723C38.5669 132.995 38.9614 133.143 39.2449 132.945C39.3435 132.871 39.4545 132.81 39.5654 132.76C39.5901 132.748 39.6271 132.735 39.6517 132.723C39.7257 132.686 39.5038 132.772 39.6271 132.723C39.6887 132.698 39.7503 132.674 39.812 132.661C39.9106 132.637 40.0585 132.637 40.1448 132.587C40.1448 132.587 39.9846 132.6 40.0955 132.587C40.1202 132.587 40.1448 132.587 40.1695 132.587C40.2311 132.587 40.3051 132.587 40.3667 132.587C40.416 132.587 40.4777 132.587 40.527 132.587C40.5516 132.587 40.7365 132.612 40.6256 132.587C40.5146 132.563 40.6872 132.6 40.7119 132.612C40.7735 132.612 40.8228 132.637 40.8845 132.649C40.9461 132.661 40.9954 132.686 41.0447 132.698C41.0694 132.698 41.094 132.723 41.1064 132.723C40.9708 132.686 41.0077 132.674 41.057 132.698C41.1557 132.748 41.2543 132.797 41.3529 132.859C41.3899 132.884 41.4392 132.921 41.4762 132.945C41.5378 132.982 41.3776 132.859 41.4269 132.908C41.4515 132.933 41.4639 132.945 41.4885 132.958C41.5625 133.032 41.6364 133.106 41.7104 133.18C41.809 133.278 41.6364 133.069 41.7227 133.192C41.7474 133.229 41.772 133.278 41.809 133.315C41.846 133.352 41.8583 133.402 41.883 133.451C41.883 133.463 41.8953 133.5 41.9076 133.513C41.8214 133.377 41.8707 133.439 41.9076 133.488C41.9446 133.587 41.9693 133.686 41.9939 133.784C42.0309 133.957 41.9939 133.649 41.9939 133.821C41.9939 133.883 41.9939 133.945 41.9939 133.994C41.9939 134.043 41.9939 134.105 41.9939 134.154C41.9939 134.302 42.0186 134.019 41.9939 134.191C41.9693 134.315 41.9323 134.438 41.8953 134.562C41.8953 134.599 41.8707 134.623 41.8583 134.66C41.8337 134.722 41.8214 134.673 41.8707 134.636C41.8337 134.673 41.809 134.771 41.7844 134.821C41.7104 134.956 41.6241 135.08 41.5378 135.203C41.5008 135.265 41.4639 135.327 41.4145 135.376C41.4145 135.388 41.3776 135.438 41.3652 135.438C41.3899 135.438 41.4392 135.339 41.3899 135.401C41.3036 135.499 41.2296 135.586 41.131 135.672C41.1064 135.697 40.9708 135.808 41.057 135.734C41.1433 135.66 41.0077 135.771 40.9831 135.783C40.9461 135.808 40.9091 135.832 40.8721 135.845C40.8475 135.857 40.6626 135.943 40.7735 135.894C40.8845 135.845 40.7365 135.906 40.6995 135.919C40.6626 135.931 40.6133 135.943 40.5639 135.956C40.527 135.956 40.4653 135.956 40.4283 135.98C40.527 135.931 40.5763 135.968 40.5023 135.98C40.4777 135.98 40.4407 135.98 40.416 135.98C40.3297 135.98 40.2434 135.98 40.1571 135.98C40.0462 135.98 40.3051 136.005 40.2188 135.98C40.1941 135.98 40.1695 135.98 40.1448 135.968C40.0955 135.968 40.0462 135.943 40.0092 135.931C39.9722 135.931 39.9352 135.906 39.8983 135.894C39.8736 135.894 39.849 135.882 39.8243 135.869C39.7503 135.845 39.9722 135.943 39.8736 135.894C39.7873 135.845 39.7133 135.808 39.6271 135.758C39.5901 135.734 39.5531 135.709 39.5161 135.684C39.3928 135.598 39.6147 135.771 39.5161 135.684C39.4421 135.623 39.3682 135.561 39.3065 135.487C39.2696 135.45 39.2449 135.413 39.2079 135.376C39.1463 135.302 39.2942 135.499 39.2079 135.376C39.1463 135.29 39.097 135.203 39.0353 135.104C39.0107 135.055 38.986 135.006 38.9614 134.956C38.9121 134.87 38.986 135.006 38.986 135.018C38.986 134.993 38.9614 134.956 38.949 134.932C38.9121 134.821 38.8751 134.697 38.8504 134.586C38.8504 134.537 38.8381 134.475 38.8258 134.426C38.8751 134.623 38.8258 134.451 38.8258 134.389C38.8258 134.265 38.8258 134.13 38.8258 134.006C38.8258 133.982 38.8258 133.957 38.8258 133.932C38.8258 134.08 38.8134 134.019 38.8258 133.957C38.8258 133.895 38.8504 133.834 38.8628 133.772C38.8997 133.636 38.949 133.513 38.986 133.389C39.0107 133.303 38.9244 133.537 38.986 133.402C38.9984 133.365 39.023 133.328 39.0353 133.291C39.0723 133.229 39.097 133.167 39.134 133.106C39.2202 132.958 39.3065 132.822 39.4175 132.698C39.6147 132.439 39.4668 131.983 39.1956 131.847C38.8627 131.674 38.5546 131.798 38.345 132.069L38.382 132.106Z" fill="#434040"/>
<path d="M1.26479 123.914C0.549795 124.839 0.253935 126.122 0.710052 127.233C1.11686 128.232 1.99211 128.997 3.08926 129.083C4.29736 129.194 5.2589 128.244 5.76433 127.233C6.07252 126.628 6.19579 125.962 6.07252 125.295C5.9739 124.777 5.66571 124.271 5.27123 123.914C4.22339 122.988 2.6578 122.927 1.49901 123.679C1.22781 123.852 1.09221 124.234 1.27712 124.531C1.4497 124.802 1.84418 124.95 2.12772 124.753C2.22634 124.679 2.33728 124.617 2.44823 124.568C2.47289 124.555 2.50987 124.543 2.53452 124.531C2.60849 124.494 2.38659 124.58 2.50987 124.531C2.57151 124.506 2.63314 124.481 2.69478 124.469C2.7934 124.444 2.94133 124.444 3.02762 124.395C3.02762 124.395 2.86737 124.407 2.97831 124.395C3.00297 124.395 3.02762 124.395 3.05228 124.395C3.11392 124.395 3.18788 124.395 3.24952 124.395C3.29883 124.395 3.36047 124.395 3.40978 124.395C3.43443 124.395 3.61934 124.419 3.5084 124.395C3.39745 124.37 3.57003 124.407 3.59469 124.419C3.65633 124.419 3.70564 124.444 3.76727 124.456C3.82891 124.469 3.87822 124.494 3.92753 124.506C3.95219 124.506 3.97684 124.531 3.98917 124.531C3.85357 124.494 3.89055 124.481 3.93986 124.506C4.03848 124.555 4.1371 124.605 4.23572 124.666C4.2727 124.691 4.32201 124.728 4.35899 124.753C4.42063 124.79 4.26037 124.666 4.30968 124.716C4.33434 124.74 4.34667 124.753 4.37132 124.765C4.44529 124.839 4.51925 124.913 4.59322 124.987C4.69184 125.086 4.51925 124.876 4.60555 124.999C4.6302 125.036 4.65486 125.086 4.69184 125.123C4.72882 125.16 4.74115 125.209 4.7658 125.258C4.7658 125.271 4.77813 125.308 4.79046 125.32C4.70416 125.184 4.75348 125.246 4.79046 125.295C4.82744 125.394 4.8521 125.493 4.87675 125.592C4.91373 125.764 4.87675 125.456 4.87675 125.629C4.87675 125.69 4.87675 125.752 4.87675 125.801C4.87675 125.851 4.87675 125.912 4.87675 125.962C4.87675 126.11 4.9014 125.826 4.87675 125.999C4.8521 126.122 4.81511 126.246 4.77813 126.369C4.77813 126.406 4.75348 126.431 4.74115 126.468C4.71649 126.529 4.70416 126.48 4.75348 126.443C4.71649 126.48 4.69184 126.579 4.66718 126.628C4.59322 126.764 4.50693 126.887 4.42063 127.011C4.38365 127.072 4.34667 127.134 4.29736 127.183C4.29736 127.196 4.26037 127.245 4.24805 127.245C4.2727 127.245 4.32201 127.146 4.2727 127.208C4.18641 127.307 4.11244 127.393 4.01382 127.479C3.98917 127.504 3.85357 127.615 3.93986 127.541C4.02615 127.467 3.89055 127.578 3.86589 127.59C3.82891 127.615 3.79193 127.64 3.75495 127.652C3.73029 127.664 3.54538 127.751 3.65633 127.701C3.76727 127.652 3.61934 127.714 3.58236 127.726C3.54538 127.738 3.49607 127.751 3.44676 127.763C3.40978 127.763 3.34814 127.763 3.31116 127.788C3.40978 127.738 3.45909 127.775 3.38512 127.788C3.36047 127.788 3.32348 127.788 3.29883 127.788C3.21254 127.788 3.12624 127.788 3.03995 127.788C2.929 127.788 3.18788 127.813 3.10159 127.788C3.07693 127.788 3.05228 127.788 3.02762 127.775C2.97831 127.775 2.929 127.751 2.89202 127.738C2.85504 127.738 2.81806 127.714 2.78107 127.701C2.75642 127.701 2.73176 127.689 2.70711 127.677C2.63314 127.652 2.85504 127.751 2.75642 127.701C2.67013 127.652 2.59616 127.615 2.50987 127.566C2.47289 127.541 2.4359 127.516 2.39892 127.492C2.27565 127.405 2.49754 127.578 2.39892 127.492C2.32496 127.43 2.25099 127.368 2.18935 127.294C2.15237 127.257 2.12772 127.22 2.09073 127.183C2.0291 127.109 2.17703 127.307 2.09073 127.183C2.0291 127.097 1.97979 127.011 1.91815 126.912C1.89349 126.862 1.86884 126.813 1.84418 126.764C1.79487 126.677 1.86884 126.813 1.86884 126.825C1.86884 126.801 1.84418 126.764 1.83186 126.739C1.79487 126.628 1.75789 126.505 1.73324 126.394C1.73324 126.344 1.72091 126.283 1.70858 126.233C1.75789 126.431 1.70858 126.258 1.70858 126.196C1.70858 126.073 1.70858 125.937 1.70858 125.814C1.70858 125.789 1.70858 125.764 1.70858 125.74C1.70858 125.888 1.69625 125.826 1.70858 125.764C1.70858 125.703 1.73324 125.641 1.74556 125.579C1.78255 125.444 1.83186 125.32 1.86884 125.197C1.89349 125.11 1.8072 125.345 1.86884 125.209C1.88117 125.172 1.90582 125.135 1.91815 125.098C1.95513 125.036 1.97979 124.975 2.01677 124.913C2.10306 124.765 2.18935 124.629 2.3003 124.506C2.49754 124.247 2.34961 123.79 2.07841 123.655C1.74556 123.482 1.43738 123.605 1.22781 123.877L1.26479 123.914Z" fill="#434040"/>
<path d="M262.299 38.2981C261.584 39.2235 261.289 40.5067 261.745 41.6171C262.152 42.6165 263.027 43.3815 264.124 43.4679C265.332 43.5789 266.294 42.6289 266.799 41.6171C267.107 41.0126 267.23 40.3463 267.107 39.68C267.009 39.1618 266.7 38.6559 266.306 38.2981C265.258 37.3728 263.692 37.3111 262.534 38.0637C262.262 38.2364 262.127 38.6189 262.312 38.915C262.484 39.1865 262.879 39.3345 263.162 39.1371C263.261 39.0631 263.372 39.0014 263.483 38.9521C263.508 38.9397 263.545 38.9274 263.569 38.915C263.643 38.878 263.421 38.9644 263.545 38.915C263.606 38.8904 263.668 38.8657 263.729 38.8533C263.828 38.8287 263.976 38.8287 264.062 38.7793C264.062 38.7793 263.902 38.7917 264.013 38.7793C264.038 38.7793 264.062 38.7793 264.087 38.7793C264.149 38.7793 264.223 38.7793 264.284 38.7793C264.333 38.7793 264.395 38.7793 264.444 38.7793C264.469 38.7793 264.654 38.804 264.543 38.7793C264.432 38.7546 264.605 38.7917 264.629 38.804C264.691 38.804 264.74 38.8287 264.802 38.841C264.864 38.8533 264.913 38.878 264.962 38.8904C264.987 38.8904 265.012 38.915 265.024 38.915C264.888 38.878 264.925 38.8657 264.975 38.8904C265.073 38.9397 265.172 38.9891 265.27 39.0508C265.307 39.0754 265.357 39.1125 265.394 39.1371C265.455 39.1741 265.295 39.0508 265.344 39.1001C265.369 39.1248 265.381 39.1371 265.406 39.1495C265.48 39.2235 265.554 39.2975 265.628 39.3716C265.727 39.4703 265.554 39.2605 265.64 39.3839C265.665 39.4209 265.69 39.4703 265.727 39.5073C265.763 39.5443 265.776 39.5936 265.8 39.643C265.8 39.6553 265.813 39.6924 265.825 39.7047C265.739 39.569 265.788 39.6307 265.825 39.68C265.862 39.7787 265.887 39.8774 265.911 39.9761C265.948 40.1489 265.911 39.8404 265.911 40.0131C265.911 40.0748 265.911 40.1365 265.911 40.1859C265.911 40.2352 265.911 40.2969 265.911 40.3463C265.911 40.4943 265.936 40.2106 265.911 40.3833C265.887 40.5067 265.85 40.6301 265.813 40.7534C265.813 40.7905 265.788 40.8151 265.776 40.8522C265.751 40.9138 265.739 40.8645 265.788 40.8275C265.751 40.8645 265.727 40.9632 265.702 41.0126C265.628 41.1483 265.542 41.2717 265.455 41.395C265.418 41.4567 265.381 41.5184 265.332 41.5678C265.332 41.5801 265.295 41.6295 265.283 41.6295C265.32 41.6295 265.357 41.5308 265.307 41.5925C265.221 41.6912 265.147 41.7775 265.049 41.8639C265.024 41.8886 264.888 41.9996 264.975 41.9256C265.061 41.8516 264.925 41.9626 264.901 41.9749C264.864 41.9996 264.827 42.0243 264.79 42.0366C264.765 42.049 264.58 42.1353 264.691 42.086C264.802 42.0366 264.654 42.0983 264.617 42.1107C264.58 42.123 264.531 42.1353 264.481 42.1477C264.444 42.1477 264.383 42.1477 264.346 42.1724C264.444 42.123 264.494 42.16 264.42 42.1724C264.395 42.1724 264.358 42.1724 264.334 42.1724C264.247 42.1724 264.161 42.1724 264.075 42.1724C263.964 42.1724 264.223 42.197 264.136 42.1724C264.112 42.1724 264.087 42.1723 264.062 42.16C264.013 42.16 263.964 42.1353 263.927 42.123C263.89 42.123 263.853 42.0983 263.816 42.086C263.791 42.086 263.766 42.0736 263.742 42.0613C263.668 42.0366 263.89 42.1353 263.791 42.086C263.705 42.0366 263.631 41.9996 263.545 41.9503C263.508 41.9256 263.471 41.9009 263.434 41.8762C263.31 41.7899 263.532 41.9626 263.434 41.8762C263.36 41.8145 263.286 41.7528 263.224 41.6788C263.187 41.6418 263.162 41.6048 263.125 41.5678C263.064 41.4937 263.212 41.6912 263.125 41.5678C263.064 41.4814 263.014 41.395 262.953 41.2963C262.928 41.247 262.904 41.1976 262.879 41.1483C262.83 41.0619 262.904 41.1976 262.904 41.21C262.904 41.1853 262.879 41.1483 262.867 41.1236C262.83 41.0126 262.793 40.8892 262.768 40.7781C262.768 40.7288 262.756 40.6671 262.743 40.6177C262.793 40.8151 262.743 40.6424 262.743 40.5807C262.743 40.4573 262.743 40.3216 262.743 40.1982C262.743 40.1735 262.743 40.1489 262.743 40.1242C262.743 40.2723 262.731 40.2106 262.743 40.1489C262.743 40.0872 262.768 40.0255 262.78 39.9638C262.817 39.8281 262.867 39.7047 262.904 39.5813C262.928 39.4949 262.842 39.7294 262.904 39.5936C262.916 39.5566 262.94 39.5196 262.953 39.4826C262.99 39.4209 263.014 39.3592 263.051 39.2975C263.138 39.1495 263.224 39.0137 263.335 38.8904C263.532 38.6313 263.384 38.1747 263.113 38.039C262.78 37.8663 262.472 37.9897 262.262 38.2611L262.299 38.2981Z" fill="#434040"/>
<path d="M114.776 71.7966C114.184 72.5739 113.938 73.6597 114.32 74.585C114.677 75.4487 115.417 76.0903 116.366 76.1767C117.389 76.263 118.215 75.4734 118.634 74.622C118.893 74.1038 119.004 73.5363 118.893 72.9564C118.807 72.5122 118.548 72.0804 118.215 71.7842C117.328 70.9946 115.996 70.9329 115.01 71.5745C114.739 71.7472 114.603 72.1297 114.788 72.4258C114.961 72.6973 115.355 72.8453 115.639 72.6479C115.725 72.5986 115.811 72.5369 115.898 72.4999C115.922 72.4999 115.947 72.4752 115.972 72.4628C116.046 72.4258 115.811 72.5245 115.922 72.4875C115.972 72.4752 116.021 72.4505 116.07 72.4382C116.132 72.4135 116.28 72.3518 116.342 72.3765C116.342 72.3765 116.169 72.4012 116.268 72.3765C116.292 72.3765 116.305 72.3765 116.329 72.3765C116.379 72.3765 116.44 72.3765 116.489 72.3765C116.539 72.3765 116.576 72.3765 116.625 72.3765C116.662 72.3765 116.81 72.4012 116.687 72.3765C116.563 72.3518 116.711 72.3765 116.748 72.3888C116.798 72.3888 116.835 72.4135 116.884 72.4258C116.933 72.4382 116.97 72.4505 117.02 72.4752C117.155 72.5245 116.909 72.4258 116.995 72.4752C117.081 72.5245 117.155 72.5616 117.241 72.6109C117.278 72.6356 117.303 72.6603 117.34 72.6849C117.402 72.722 117.229 72.5862 117.278 72.6356C117.291 72.6479 117.315 72.6603 117.328 72.6849C117.389 72.7466 117.451 72.8083 117.513 72.87C117.426 72.7343 117.599 72.9687 117.513 72.87C117.537 72.907 117.562 72.9317 117.574 72.9687C117.587 73.0057 117.611 73.0427 117.636 73.0798C117.587 72.944 117.698 73.2155 117.636 73.0798C117.661 73.1538 117.685 73.2402 117.698 73.3142C117.685 73.1538 117.722 73.4746 117.698 73.3142C117.698 73.3635 117.698 73.4129 117.698 73.4623C117.698 73.5116 117.698 73.5486 117.698 73.598C117.698 73.6226 117.698 73.6967 117.698 73.598C117.698 73.5856 117.71 73.4746 117.698 73.598C117.685 73.6967 117.648 73.7954 117.624 73.8941C117.599 73.9434 117.525 74.0915 117.624 73.9188C117.599 73.9681 117.574 74.0175 117.55 74.0668C117.488 74.1779 117.426 74.2766 117.352 74.3876C117.315 74.437 117.291 74.4863 117.254 74.5357C117.241 74.548 117.229 74.5727 117.217 74.585C117.303 74.4493 117.278 74.4987 117.254 74.5357C117.192 74.6097 117.118 74.6837 117.044 74.7578C117.02 74.7824 116.896 74.8812 116.995 74.7948C117.094 74.7084 116.97 74.8071 116.946 74.8195C116.921 74.8441 116.884 74.8565 116.859 74.8688C116.835 74.8812 116.674 74.9552 116.798 74.9058C116.921 74.8565 116.785 74.9058 116.761 74.9058C116.724 74.9058 116.687 74.9305 116.65 74.9305C116.613 74.9305 116.576 74.9305 116.539 74.9552C116.736 74.8935 116.637 74.9552 116.563 74.9552C116.489 74.9552 116.428 74.9552 116.354 74.9552C116.255 74.9552 116.514 74.9799 116.44 74.9552C116.416 74.9552 116.403 74.9552 116.379 74.9552C116.342 74.9552 116.305 74.9428 116.268 74.9305C116.243 74.9305 116.206 74.9182 116.181 74.9058C116.157 74.9058 116.144 74.8935 116.132 74.8812C116.058 74.8565 116.292 74.9552 116.206 74.9058C116.144 74.8688 116.07 74.8441 116.009 74.7948C115.984 74.7701 115.947 74.7578 115.922 74.7331C115.811 74.6591 116.033 74.8318 115.947 74.7454C115.885 74.6961 115.836 74.6467 115.774 74.585C115.75 74.5604 115.725 74.5233 115.688 74.4863C115.627 74.4123 115.787 74.622 115.713 74.511C115.664 74.437 115.614 74.3629 115.577 74.2889C115.553 74.2519 115.54 74.2149 115.516 74.1779C115.479 74.1038 115.553 74.2519 115.553 74.2519C115.553 74.2396 115.528 74.2025 115.528 74.1779C115.491 74.0915 115.466 73.9928 115.442 73.8941C115.442 73.8447 115.429 73.8077 115.417 73.7584C115.417 73.8201 115.454 73.9805 115.417 73.7584C115.417 73.6597 115.417 73.5486 115.417 73.4499C115.417 73.4252 115.417 73.4129 115.417 73.3882C115.417 73.5856 115.405 73.4869 115.417 73.4376C115.417 73.3882 115.442 73.3389 115.442 73.2895C115.466 73.1785 115.503 73.0798 115.54 72.9687C115.565 72.8947 115.466 73.1168 115.528 73.0057C115.54 72.9811 115.553 72.944 115.577 72.9194C115.602 72.87 115.627 72.8207 115.664 72.7713C115.725 72.6603 115.811 72.5492 115.885 72.4382C115.972 72.3148 115.984 72.0927 115.947 71.957C115.91 71.8089 115.799 71.6609 115.664 71.5868C115.516 71.5128 115.343 71.4758 115.183 71.5251C115.023 71.5745 114.912 71.6732 114.813 71.8089L114.776 71.7966Z" fill="#434040"/>
<path d="M187.114 0.666328C186.522 1.44364 186.276 2.52941 186.658 3.45479C187.015 4.31847 187.755 4.96006 188.704 5.04643C189.727 5.1328 190.553 4.34314 190.972 3.4918C191.231 2.97359 191.342 2.40603 191.231 1.82613C191.145 1.38195 190.886 0.950109 190.553 0.653989C189.666 -0.135662 188.334 -0.197354 187.348 0.444238C187.077 0.616974 186.941 0.999462 187.126 1.29558C187.299 1.56702 187.693 1.71508 187.977 1.51767C188.063 1.46832 188.149 1.40663 188.236 1.36961C188.26 1.36961 188.285 1.34493 188.31 1.3326C188.384 1.29558 188.149 1.39429 188.26 1.35727C188.31 1.34493 188.359 1.32026 188.408 1.30792C188.47 1.28324 188.618 1.22155 188.679 1.24623C188.679 1.24623 188.507 1.2709 188.605 1.24623C188.63 1.24623 188.642 1.24623 188.667 1.24623C188.716 1.24623 188.778 1.24623 188.827 1.24623C188.877 1.24623 188.914 1.24623 188.963 1.24623C189 1.24623 189.148 1.2709 189.025 1.24623C188.901 1.22155 189.049 1.24623 189.086 1.25857C189.136 1.25857 189.173 1.28324 189.222 1.29558C189.271 1.30792 189.308 1.32026 189.357 1.34493C189.493 1.39429 189.247 1.29558 189.333 1.34493C189.419 1.39429 189.493 1.4313 189.579 1.48066C189.616 1.50533 189.641 1.53001 189.678 1.55469C189.74 1.5917 189.567 1.45598 189.616 1.50533C189.629 1.51767 189.653 1.53001 189.666 1.55469C189.727 1.61638 189.789 1.67807 189.851 1.73976C189.764 1.60404 189.937 1.83847 189.851 1.73976C189.875 1.77678 189.9 1.80145 189.912 1.83847C189.925 1.87548 189.949 1.9125 189.974 1.94951C189.925 1.81379 190.035 2.08523 189.974 1.94951C189.998 2.02354 190.023 2.10991 190.035 2.18394C190.023 2.02354 190.06 2.34434 190.035 2.18394C190.035 2.23329 190.035 2.28265 190.035 2.332C190.035 2.38135 190.035 2.41837 190.035 2.46772C190.035 2.4924 190.035 2.56643 190.035 2.46772C190.035 2.45538 190.048 2.34434 190.035 2.46772C190.023 2.56643 189.986 2.66513 189.962 2.76384C189.937 2.81319 189.863 2.96125 189.962 2.78852C189.937 2.83787 189.912 2.88722 189.888 2.93658C189.826 3.04762 189.764 3.14633 189.69 3.25737C189.653 3.30673 189.629 3.35608 189.592 3.40543C189.579 3.41777 189.567 3.44245 189.555 3.45479C189.641 3.31906 189.616 3.36842 189.592 3.40543C189.53 3.47946 189.456 3.55349 189.382 3.62752C189.357 3.6522 189.234 3.7509 189.333 3.66454C189.431 3.57817 189.308 3.67687 189.283 3.68921C189.259 3.71389 189.222 3.72623 189.197 3.73857C189.173 3.7509 189.012 3.82493 189.136 3.77558C189.259 3.72623 189.123 3.77558 189.099 3.77558C189.062 3.77558 189.025 3.80026 188.988 3.80026C188.951 3.80026 188.914 3.80026 188.877 3.82493C189.074 3.76324 188.975 3.82493 188.901 3.82493C188.827 3.82493 188.766 3.82493 188.692 3.82493C188.593 3.82493 188.852 3.84961 188.778 3.82493C188.753 3.82493 188.741 3.82493 188.716 3.82493C188.679 3.82493 188.642 3.8126 188.605 3.80026C188.581 3.80026 188.544 3.78792 188.519 3.77558C188.495 3.77558 188.482 3.76324 188.47 3.7509C188.396 3.72623 188.63 3.82493 188.544 3.77558C188.482 3.73857 188.408 3.71389 188.347 3.66454C188.322 3.63986 188.285 3.62752 188.26 3.60284C188.186 3.55349 188.334 3.66454 188.322 3.6522C188.31 3.6522 188.285 3.62752 188.273 3.61518C188.211 3.56583 188.162 3.51648 188.1 3.45479C188.075 3.43011 188.051 3.39309 188.014 3.35608C187.952 3.28205 188.112 3.4918 188.038 3.38076C187.989 3.30673 187.94 3.2327 187.903 3.15867C187.878 3.12165 187.866 3.08464 187.841 3.04762C187.804 2.97359 187.878 3.12165 187.878 3.12165C187.878 3.10931 187.854 3.0723 187.854 3.04762C187.817 2.96125 187.792 2.86255 187.767 2.76384C187.767 2.71449 187.755 2.67747 187.743 2.62812C187.743 2.68981 187.78 2.85021 187.743 2.62812C187.743 2.52941 187.743 2.41837 187.743 2.31966C187.743 2.29498 187.743 2.28265 187.743 2.25797C187.743 2.45538 187.73 2.35668 187.743 2.30732C187.743 2.25797 187.767 2.20862 187.767 2.15926C187.792 2.04822 187.829 1.94951 187.866 1.83847C187.89 1.76444 187.792 1.98653 187.854 1.87548C187.866 1.85081 187.878 1.81379 187.903 1.78911C187.927 1.73976 187.952 1.69041 187.989 1.64105C188.051 1.53001 188.137 1.41896 188.211 1.30792C188.297 1.18454 188.31 0.962447 188.273 0.826726C188.236 0.678666 188.125 0.530606 187.989 0.456576C187.841 0.382547 187.669 0.345532 187.508 0.394885C187.348 0.444238 187.237 0.542945 187.139 0.678666L187.114 0.666328Z" fill="#434040"/>
<path d="M229.878 71.7966C229.286 72.5739 229.039 73.6597 229.421 74.585C229.779 75.4487 230.519 76.0903 231.468 76.1767C232.491 76.263 233.317 75.4734 233.736 74.622C233.995 74.1038 234.106 73.5363 233.995 72.9564C233.909 72.5122 233.65 72.0804 233.317 71.7842C232.429 70.9946 231.098 70.9329 230.112 71.5745C229.841 71.7472 229.705 72.1297 229.89 72.4258C230.062 72.6973 230.457 72.8453 230.74 72.6479C230.827 72.5986 230.913 72.5369 230.999 72.4999C231.024 72.4999 231.049 72.4752 231.073 72.4628C231.147 72.4258 230.913 72.5245 231.024 72.4875C231.073 72.4752 231.123 72.4505 231.172 72.4382C231.234 72.4135 231.381 72.3518 231.443 72.3765C231.443 72.3765 231.271 72.4012 231.369 72.3765C231.394 72.3765 231.406 72.3765 231.431 72.3765C231.48 72.3765 231.542 72.3765 231.591 72.3765C231.64 72.3765 231.677 72.3765 231.727 72.3765C231.764 72.3765 231.912 72.4012 231.788 72.3765C231.665 72.3518 231.813 72.3765 231.85 72.3888C231.899 72.3888 231.936 72.4135 231.986 72.4258C232.035 72.4382 232.072 72.4505 232.121 72.4752C232.257 72.5245 232.01 72.4258 232.096 72.4752C232.183 72.5245 232.257 72.5616 232.343 72.6109C232.38 72.6356 232.405 72.6603 232.442 72.6849C232.503 72.722 232.331 72.5862 232.38 72.6356C232.392 72.6479 232.417 72.6603 232.429 72.6849C232.491 72.7466 232.553 72.8083 232.614 72.87C232.528 72.7343 232.701 72.9687 232.614 72.87C232.639 72.907 232.664 72.9317 232.676 72.9687C232.688 73.0057 232.713 73.0427 232.738 73.0798C232.688 72.944 232.799 73.2155 232.738 73.0798C232.762 73.1538 232.787 73.2402 232.799 73.3142C232.787 73.1538 232.824 73.4746 232.799 73.3142C232.799 73.3635 232.799 73.4129 232.799 73.4623C232.799 73.5116 232.799 73.5486 232.799 73.598C232.799 73.6226 232.799 73.6967 232.799 73.598C232.799 73.5856 232.811 73.4746 232.799 73.598C232.787 73.6967 232.75 73.7954 232.725 73.8941C232.701 73.9434 232.627 74.0915 232.725 73.9188C232.701 73.9681 232.676 74.0175 232.651 74.0668C232.59 74.1779 232.528 74.2766 232.454 74.3876C232.417 74.437 232.392 74.4863 232.355 74.5357C232.343 74.548 232.331 74.5727 232.318 74.585C232.405 74.4493 232.38 74.4987 232.355 74.5357C232.294 74.6097 232.22 74.6837 232.146 74.7578C232.121 74.7824 231.998 74.8812 232.096 74.7948C232.195 74.7084 232.072 74.8071 232.047 74.8195C232.023 74.8441 231.986 74.8565 231.961 74.8688C231.936 74.8812 231.776 74.9552 231.899 74.9058C232.023 74.8565 231.887 74.9058 231.862 74.9058C231.825 74.9058 231.788 74.9305 231.751 74.9305C231.714 74.9305 231.677 74.9305 231.64 74.9552C231.838 74.8935 231.739 74.9552 231.665 74.9552C231.591 74.9552 231.529 74.9552 231.455 74.9552C231.357 74.9552 231.616 74.9799 231.542 74.9552C231.517 74.9552 231.505 74.9552 231.48 74.9552C231.443 74.9552 231.406 74.9428 231.369 74.9305C231.344 74.9305 231.308 74.9182 231.283 74.9058C231.258 74.9058 231.246 74.8935 231.234 74.8812C231.16 74.8565 231.394 74.9552 231.308 74.9058C231.246 74.8688 231.172 74.8441 231.11 74.7948C231.086 74.7701 231.049 74.7578 231.024 74.7331C230.95 74.6837 231.098 74.7948 231.086 74.7824C231.073 74.7824 231.049 74.7578 231.036 74.7454C230.975 74.6961 230.925 74.6467 230.864 74.585C230.839 74.5604 230.814 74.5233 230.777 74.4863C230.716 74.4123 230.876 74.622 230.802 74.511C230.753 74.437 230.703 74.3629 230.666 74.2889C230.642 74.2519 230.63 74.2149 230.605 74.1779C230.568 74.1038 230.642 74.2519 230.642 74.2519C230.642 74.2396 230.617 74.2025 230.617 74.1779C230.58 74.0915 230.556 73.9928 230.531 73.8941C230.531 73.8447 230.519 73.8077 230.506 73.7584C230.506 73.8201 230.543 73.9805 230.506 73.7584C230.506 73.6597 230.506 73.5486 230.506 73.4499C230.506 73.4252 230.506 73.4129 230.506 73.3882C230.506 73.5856 230.494 73.4869 230.506 73.4376C230.506 73.3882 230.531 73.3389 230.531 73.2895C230.556 73.1785 230.593 73.0798 230.629 72.9687C230.654 72.8947 230.556 73.1168 230.617 73.0057C230.63 72.9811 230.642 72.944 230.666 72.9194C230.691 72.87 230.716 72.8207 230.753 72.7713C230.814 72.6603 230.901 72.5492 230.975 72.4382C231.061 72.3148 231.073 72.0927 231.036 71.957C230.999 71.8089 230.888 71.6609 230.753 71.5868C230.605 71.5128 230.432 71.4758 230.272 71.5251C230.112 71.5745 230.001 71.6732 229.902 71.8089L229.878 71.7966Z" fill="#434040"/>
<path d="M16.698 172.428C16.6241 170.244 17.1665 168.011 17.6842 165.901H16.4885C17.0679 167.344 17.5363 168.825 17.9308 170.33C18.0541 170.811 18.128 171.293 18.2143 171.774C18.3006 172.218 18.3746 172.675 18.7444 172.971C19.0156 173.18 19.4471 173.008 19.595 172.749C19.7799 172.428 19.6443 172.107 19.3731 171.897C19.3978 171.922 19.6197 172.082 19.5827 172.144C19.5827 172.132 19.5457 172.045 19.5457 172.021C19.521 171.934 19.4964 171.86 19.4841 171.774C19.4347 171.564 19.3978 171.342 19.3608 171.132C19.2745 170.626 19.1635 170.133 19.0403 169.639C18.6704 168.257 18.239 166.9 17.6966 165.58C17.5856 165.321 17.3884 165.124 17.0925 165.124C16.8213 165.124 16.5501 165.321 16.4885 165.58C16.2173 166.728 15.9584 167.887 15.7611 169.059C15.5639 170.232 15.416 171.305 15.453 172.44C15.4776 173.242 16.7227 173.242 16.698 172.44V172.428Z" fill="#434040"/>
<path d="M18.8926 173.02C20.5938 173.316 22.2827 172.909 23.9839 172.897L23.6634 171.737C22.2334 172.736 21.0869 174.118 19.5953 174.97C18.8926 175.364 19.5213 176.438 20.224 176.043C21.013 175.599 21.7033 174.994 22.3813 174.414C22.7265 174.118 23.0593 173.822 23.4045 173.526C23.5648 173.39 23.7374 173.242 23.9099 173.106C23.9469 173.082 23.9716 173.057 24.0086 173.02C24.0579 172.983 23.9716 173.045 24.0579 172.983C24.1442 172.921 24.2181 172.872 24.2921 172.81C24.5263 172.65 24.6619 172.391 24.5756 172.107C24.5017 171.848 24.2428 171.651 23.9716 171.651C22.3937 171.651 20.7541 172.082 19.2132 171.811C18.8803 171.749 18.5475 171.897 18.4489 172.243C18.3626 172.539 18.5475 172.946 18.8803 173.008L18.8926 173.02Z" fill="#434040"/>
<path d="M19.4353 176.117C20.064 177.573 21.2968 178.696 21.8392 180.189L22.6035 179.424C21.6296 179.214 20.8653 178.4 20.0024 177.906C19.6202 177.684 19.2504 177.462 18.8929 177.203C18.5354 176.944 18.1533 176.648 17.7464 176.438C17.4506 176.277 17.0684 176.364 16.8959 176.66C16.7356 176.944 16.8219 177.363 17.1177 177.511C17.5246 177.721 17.8944 178.017 18.2642 178.276C18.634 178.535 19.0285 178.782 19.4353 179.017C20.3722 179.572 21.1735 180.386 22.2706 180.62C22.7021 180.719 23.2075 180.324 23.0349 179.856C22.7391 179.029 22.2953 178.289 21.7899 177.573C21.3214 176.907 20.8407 176.24 20.5078 175.475C20.3722 175.167 19.9161 175.093 19.6572 175.253C19.3367 175.438 19.2997 175.796 19.4353 176.105V176.117Z" fill="#434040"/>
<path d="M15.749 171.823C14.2081 172.095 12.5685 171.663 10.9906 171.663C10.7194 171.663 10.4605 171.86 10.3865 172.119C10.3126 172.403 10.4482 172.662 10.6701 172.823C10.707 172.847 10.744 172.884 10.781 172.909C10.8673 172.971 10.7194 172.86 10.7933 172.909C10.8673 172.971 10.9413 173.032 11.0152 173.094C11.1755 173.23 11.3234 173.366 11.4713 173.514C11.8042 173.834 12.137 174.168 12.4699 174.488C13.0986 175.105 13.7519 175.747 14.5286 176.191C15.2312 176.586 15.8599 175.512 15.1573 175.118C14.4546 174.723 13.8629 174.106 13.2465 173.501C12.6301 172.897 12.0138 172.255 11.2988 171.749L10.9782 172.909C12.6794 172.909 14.3683 173.329 16.0695 173.032C16.4023 172.971 16.5873 172.564 16.501 172.267C16.4023 171.922 16.0695 171.774 15.7367 171.836L15.749 171.823Z" fill="#434040"/>
<path d="M14.4544 175.488C14.1216 176.24 13.6408 176.907 13.1723 177.573C12.6669 178.289 12.2231 179.029 11.9273 179.856C11.7547 180.337 12.2601 180.719 12.6916 180.62C13.7641 180.386 14.5654 179.596 15.4653 179.054C15.8597 178.819 16.2296 178.609 16.5871 178.326C16.9446 178.042 17.2897 177.733 17.7335 177.511C18.0294 177.351 18.1157 176.944 17.9554 176.66C17.7828 176.351 17.4007 176.277 17.1048 176.438C16.6857 176.66 16.3159 176.968 15.946 177.264C15.6502 177.499 15.2557 177.733 14.8982 177.943C14.4667 178.202 14.0599 178.511 13.6408 178.794C13.2217 179.078 12.8272 179.325 12.3464 179.424L13.1107 180.189C13.6408 178.696 14.8735 177.561 15.5146 176.117C15.6502 175.809 15.6009 175.451 15.2927 175.266C15.0338 175.105 14.5777 175.179 14.4421 175.488H14.4544Z" fill="#434040"/>
<path d="M228.67 27.6254C228.596 25.4416 229.138 23.2083 229.656 21.0985H228.46C229.04 22.5174 229.496 23.9856 229.878 25.4662C230.001 25.9351 230.075 26.4163 230.162 26.8851C230.223 27.2306 230.285 27.8229 230.581 28.0573C230.852 28.267 231.197 28.3164 231.456 28.0573C231.666 27.8475 231.727 27.3787 231.456 27.1813C231.456 27.1813 231.555 27.428 231.518 27.2676C231.493 27.1936 231.468 27.1196 231.456 27.0332C231.407 26.8111 231.357 26.589 231.32 26.3669C231.234 25.8734 231.135 25.3799 231 24.8987C230.63 23.5045 230.186 22.1226 229.644 20.7777C229.533 20.5186 229.336 20.3212 229.04 20.3212C228.769 20.3212 228.497 20.5186 228.436 20.7777C228.165 21.9251 227.906 23.0849 227.708 24.2571C227.511 25.4292 227.363 26.5027 227.4 27.6378C227.425 28.4398 228.67 28.4398 228.645 27.6378L228.67 27.6254Z" fill="#434040"/>
<path d="M230.852 28.23C232.553 28.5261 234.242 28.119 235.943 28.1066L235.622 26.9468C234.192 27.9462 233.046 29.3281 231.554 30.1795C230.852 30.5743 231.48 31.6477 232.183 31.2529C232.972 30.8087 233.662 30.2042 234.34 29.6243C234.685 29.3281 235.018 29.032 235.363 28.7359C235.524 28.6002 235.696 28.4521 235.869 28.3164C235.906 28.2917 235.931 28.267 235.968 28.23C236.017 28.193 235.931 28.2547 236.017 28.193C236.091 28.1313 236.177 28.082 236.251 28.0203C236.485 27.8599 236.621 27.6008 236.535 27.317C236.461 27.0579 236.202 26.8605 235.931 26.8605C234.353 26.8605 232.713 27.2923 231.172 27.0209C230.839 26.9592 230.506 27.1072 230.408 27.4527C230.322 27.7488 230.506 28.156 230.839 28.2177L230.852 28.23Z" fill="#434040"/>
<path d="M231.406 31.327C232.047 32.7829 233.267 33.9057 233.81 35.3986L234.574 34.6336C233.6 34.4239 232.836 33.6096 231.973 33.116C231.591 32.8939 231.221 32.6718 230.864 32.4127C230.506 32.1536 230.124 31.8575 229.717 31.6478C229.421 31.4874 229.039 31.5737 228.867 31.8699C228.706 32.1536 228.793 32.5731 229.088 32.7212C229.495 32.931 229.865 33.2271 230.235 33.4862C230.605 33.7453 230.999 33.992 231.406 34.2265C232.343 34.7817 233.144 35.596 234.241 35.8305C234.673 35.9292 235.178 35.5343 235.006 35.0655C234.71 34.2388 234.266 33.4985 233.761 32.7829C233.292 32.1043 232.811 31.4504 232.479 30.6854C232.343 30.3769 231.887 30.3029 231.628 30.4633C231.307 30.6484 231.27 31.0062 231.406 31.3146V31.327Z" fill="#434040"/>
<path d="M227.708 27.0332C226.167 27.3046 224.515 26.8728 222.95 26.8728C222.678 26.8728 222.419 27.0702 222.346 27.3293C222.272 27.6131 222.407 27.8722 222.629 28.0326C222.666 28.0573 222.703 28.0943 222.74 28.119C222.826 28.1807 222.678 28.0696 222.752 28.119C222.826 28.1807 222.9 28.2424 222.974 28.304C223.134 28.4398 223.282 28.5755 223.43 28.7235C223.763 29.0443 224.096 29.3775 224.429 29.6983C225.058 30.3152 225.711 30.9568 226.488 31.401C227.19 31.7958 227.819 30.7224 227.116 30.3275C226.414 29.9327 225.822 29.3158 225.205 28.7112C224.589 28.1066 223.973 27.465 223.258 26.9592L222.937 28.119C224.638 28.119 226.327 28.5385 228.028 28.2424C228.361 28.1807 228.546 27.7735 228.46 27.4774C228.361 27.1319 228.028 26.9838 227.696 27.0455L227.708 27.0332Z" fill="#434040"/>
<path d="M226.426 30.6977C226.093 31.4503 225.612 32.1166 225.144 32.7952C224.639 33.5108 224.195 34.2511 223.899 35.0778C223.726 35.559 224.232 35.9415 224.663 35.8428C225.736 35.6083 226.537 34.8187 227.437 34.2758C227.831 34.0414 228.201 33.8316 228.559 33.5479C228.916 33.2641 229.261 32.9556 229.705 32.7335C230.001 32.5731 230.087 32.166 229.927 31.8822C229.755 31.5737 229.372 31.4997 229.076 31.6601C228.657 31.8822 228.288 32.1906 227.918 32.4868C227.622 32.7212 227.227 32.9556 226.87 33.1654C226.438 33.4245 226.032 33.7329 225.612 34.0167C225.193 34.3005 224.799 34.5473 224.318 34.646L225.082 35.4109C225.612 33.918 226.845 32.7829 227.486 31.3393C227.622 31.0308 227.573 30.673 227.264 30.4879C227.005 30.3276 226.549 30.4016 226.414 30.71L226.426 30.6977Z" fill="#434040"/>
<path d="M122.949 21.5798C122.949 21.3453 122.949 21.0986 122.974 20.8641C122.998 20.5804 123.023 20.42 123.072 20.1238C123.159 19.581 123.282 19.0504 123.405 18.5199H122.505C122.789 19.1985 122.998 19.9141 123.183 20.6297C123.294 21.0739 123.27 21.6908 123.652 21.9869C123.849 22.1473 124.17 22.0116 124.293 21.8142C124.428 21.5674 124.33 21.333 124.12 21.1726C124.157 21.1973 124.33 21.333 124.305 21.3947C124.305 21.3947 124.293 21.3453 124.293 21.333C124.293 21.296 124.268 21.259 124.268 21.2096C124.244 21.1109 124.231 21.0122 124.207 20.9012C124.157 20.6544 124.12 20.4323 124.046 20.1855C123.874 19.5316 123.664 18.89 123.405 18.2608C123.331 18.0633 123.183 17.9153 122.949 17.9153C122.752 17.9153 122.542 18.0633 122.493 18.2608C122.357 18.8036 122.246 19.3589 122.148 19.9141C122.049 20.4693 121.975 21.0122 122 21.5674C122 21.8142 122.209 22.0363 122.468 22.0363C122.727 22.0363 122.949 21.8265 122.937 21.5674L122.949 21.5798Z" fill="#434040"/>
<path d="M123.775 22.0239C124.601 22.172 125.414 21.9746 126.24 21.9746L126.006 21.0986C125.649 21.3453 125.328 21.6415 124.995 21.9252C124.835 22.0733 124.662 22.209 124.502 22.3447C124.416 22.4188 124.551 22.3077 124.502 22.3447C124.477 22.3571 124.453 22.3817 124.441 22.3941C124.404 22.4188 124.367 22.4558 124.317 22.4805C124.243 22.5298 124.157 22.5792 124.071 22.6285C123.861 22.7519 123.762 23.0604 123.898 23.2701C124.034 23.4799 124.305 23.5662 124.539 23.4428C124.921 23.2208 125.266 22.9246 125.599 22.6409C125.76 22.5051 125.92 22.3571 126.092 22.2214C126.166 22.1597 126.253 22.0856 126.327 22.0239C126.339 22.0116 126.364 21.9993 126.376 21.9869C126.425 21.9499 126.302 22.0486 126.364 21.9869C126.401 21.9622 126.438 21.9376 126.475 21.9006C126.635 21.7895 126.758 21.5798 126.684 21.37C126.622 21.1726 126.45 21.0245 126.228 21.0245C125.846 21.0245 125.464 21.0739 125.094 21.1109C124.897 21.1232 124.699 21.1356 124.502 21.1356C124.416 21.1356 124.317 21.1356 124.231 21.1356C124.182 21.1356 124.132 21.1356 124.083 21.1232C124.034 21.1232 124.034 21.1232 124.083 21.1232C124.058 21.1232 124.034 21.1232 124.009 21.1232C123.775 21.0862 123.491 21.1849 123.43 21.444C123.38 21.6661 123.504 21.9746 123.75 22.0239H123.775Z" fill="#434040"/>
<path d="M123.935 23.4182C124.083 23.7637 124.305 24.0721 124.527 24.3806C124.638 24.541 124.737 24.6891 124.835 24.8495C124.884 24.9358 124.934 25.0099 124.971 25.0962C124.995 25.1456 125.02 25.1949 125.032 25.2319C124.983 25.1209 125.045 25.2813 125.057 25.306L125.636 24.7261C125.636 24.7261 125.526 24.7014 125.464 24.6767C125.353 24.6397 125.513 24.7014 125.464 24.6767C125.439 24.6644 125.415 24.652 125.378 24.6397C125.267 24.578 125.168 24.5163 125.057 24.4423C124.847 24.3066 124.65 24.1462 124.428 24.0228C124.243 23.9241 124.071 23.813 123.898 23.6897C123.726 23.5663 123.553 23.4305 123.356 23.3195C123.134 23.2085 122.838 23.2578 122.715 23.4922C122.604 23.702 122.653 24.0104 122.887 24.1338C123.085 24.2325 123.257 24.3683 123.43 24.504C123.602 24.6397 123.8 24.7384 123.985 24.8495C124.441 25.1209 124.835 25.5157 125.378 25.6268C125.538 25.6638 125.71 25.6268 125.834 25.5034C125.945 25.3923 126.006 25.2073 125.957 25.0469C125.809 24.6397 125.599 24.2819 125.353 23.9241C125.131 23.6033 124.897 23.2825 124.749 22.9247C124.65 22.7026 124.305 22.6286 124.108 22.7519C123.874 22.9 123.837 23.1468 123.935 23.3935V23.4182Z" fill="#434040"/>
<path d="M122.284 21.1232C122.284 21.1232 122.234 21.1232 122.21 21.1232C122.271 21.1232 122.271 21.1232 122.21 21.1232C122.16 21.1232 122.111 21.1232 122.062 21.1356C121.975 21.1356 121.877 21.1356 121.79 21.1356C121.593 21.1356 121.396 21.1232 121.199 21.1109C120.817 21.0739 120.447 21.0369 120.065 21.0245C119.867 21.0245 119.658 21.1726 119.608 21.37C119.559 21.5798 119.645 21.7772 119.818 21.9006C119.843 21.9129 119.855 21.9252 119.88 21.9376C119.929 21.9746 119.806 21.8759 119.855 21.9129C119.892 21.9376 119.929 21.9746 119.966 21.9993C120.04 22.061 120.114 22.135 120.188 22.1967C120.348 22.3447 120.508 22.5051 120.656 22.6532C120.965 22.9617 121.285 23.2701 121.667 23.4922C121.877 23.6156 122.185 23.5539 122.308 23.3195C122.431 23.085 122.37 22.8136 122.136 22.6779C122.062 22.6285 121.988 22.5792 121.914 22.5298C121.84 22.4805 121.963 22.5668 121.914 22.5298C121.901 22.5175 121.877 22.5051 121.864 22.4928C121.827 22.4558 121.79 22.4311 121.753 22.3941C121.581 22.246 121.433 22.098 121.273 21.9376C120.965 21.6415 120.669 21.3207 120.311 21.0739L120.077 21.9499C120.903 21.9499 121.716 22.1473 122.542 21.9993C122.789 21.9622 122.937 21.6538 122.863 21.4194C122.777 21.1603 122.542 21.0492 122.284 21.0986V21.1232Z" fill="#434040"/>
<path d="M121.569 22.9493C121.409 23.3071 121.187 23.6279 120.965 23.9487C120.718 24.3065 120.496 24.6643 120.361 25.0715C120.311 25.2196 120.361 25.417 120.484 25.528C120.607 25.6514 120.767 25.6884 120.94 25.6514C121.47 25.5404 121.852 25.1579 122.296 24.8864C122.481 24.7754 122.654 24.6767 122.826 24.541C122.9 24.4916 122.962 24.4299 123.036 24.3806C123.134 24.3065 122.962 24.4423 123.048 24.3806C123.073 24.3682 123.097 24.3435 123.11 24.3312C123.196 24.2695 123.282 24.2078 123.369 24.1585C123.59 24.0474 123.664 23.7266 123.541 23.5169C123.393 23.2948 123.134 23.2331 122.9 23.3441C122.691 23.4552 122.506 23.6156 122.321 23.7636C122.247 23.813 122.37 23.7266 122.321 23.7636C122.296 23.776 122.271 23.8007 122.259 23.813C122.222 23.85 122.173 23.8747 122.124 23.8994C122.037 23.9611 121.951 23.9981 121.852 24.0474C121.643 24.1708 121.458 24.3189 121.261 24.4546C121.162 24.5286 121.063 24.5903 120.952 24.6397C120.928 24.652 120.903 24.6643 120.878 24.6767C120.804 24.7137 120.928 24.6643 120.878 24.6767C120.817 24.689 120.755 24.7137 120.694 24.726L121.273 25.3059C121.273 25.3059 121.347 25.1332 121.298 25.2442C121.322 25.1949 121.335 25.1579 121.359 25.1085C121.409 25.0222 121.458 24.9358 121.507 24.8494C121.606 24.689 121.704 24.541 121.815 24.3806C122.025 24.0721 122.247 23.7636 122.407 23.4182C122.506 23.1961 122.481 22.9 122.234 22.7766C122.037 22.6655 121.704 22.7026 121.593 22.9493H121.569Z" fill="#434040"/>
<path d="M260.697 136.783C260.697 136.548 260.697 136.301 260.722 136.067C260.746 135.783 260.771 135.623 260.82 135.327C260.906 134.784 261.03 134.253 261.153 133.723H260.253C260.524 134.401 260.746 135.092 260.931 135.795C260.993 136.018 261.03 136.24 261.067 136.474C261.104 136.671 261.141 136.98 261.313 137.103C261.511 137.264 261.782 137.301 261.979 137.103C262.139 136.943 262.176 136.597 261.979 136.437C261.979 136.437 262.078 136.647 262.053 136.548C262.053 136.511 262.028 136.474 262.028 136.437C262.004 136.326 261.979 136.227 261.967 136.116C261.917 135.882 261.88 135.647 261.819 135.413C261.646 134.747 261.437 134.093 261.178 133.451C261.104 133.254 260.956 133.106 260.722 133.106C260.524 133.106 260.315 133.254 260.265 133.451C260.13 133.994 260.019 134.549 259.92 135.105C259.822 135.66 259.748 136.203 259.772 136.758C259.772 137.005 259.982 137.227 260.241 137.227C260.5 137.227 260.722 137.017 260.709 136.758L260.697 136.783Z" fill="#434040"/>
<path d="M261.523 137.227C262.349 137.375 263.162 137.177 263.988 137.177L263.754 136.301C263.397 136.548 263.076 136.844 262.743 137.128C262.583 137.276 262.41 137.412 262.25 137.547C262.164 137.622 262.3 137.51 262.25 137.547C262.226 137.56 262.201 137.585 262.189 137.597C262.152 137.622 262.115 137.659 262.065 137.683C261.991 137.733 261.905 137.782 261.819 137.831C261.609 137.955 261.511 138.263 261.646 138.473C261.782 138.683 262.053 138.769 262.287 138.646C262.669 138.424 263.014 138.127 263.347 137.844C263.508 137.708 263.668 137.56 263.84 137.424C263.914 137.362 264.001 137.288 264.075 137.227C264.087 137.214 264.112 137.202 264.124 137.19C264.173 137.153 264.05 137.251 264.112 137.19C264.149 137.165 264.186 137.14 264.223 137.103C264.383 136.992 264.506 136.783 264.432 136.573C264.358 136.363 264.198 136.227 263.976 136.227C263.594 136.227 263.212 136.277 262.842 136.314C262.645 136.326 262.447 136.338 262.25 136.351C262.164 136.351 262.065 136.351 261.979 136.351C261.93 136.351 261.88 136.351 261.831 136.338C261.782 136.338 261.782 136.338 261.831 136.338C261.806 136.338 261.782 136.338 261.757 136.338C261.523 136.301 261.239 136.4 261.178 136.659C261.128 136.881 261.252 137.19 261.498 137.239L261.523 137.227Z" fill="#434040"/>
<path d="M261.683 138.621C261.831 138.966 262.053 139.275 262.275 139.583C262.385 139.744 262.484 139.892 262.583 140.052C262.632 140.139 262.681 140.213 262.718 140.299C262.743 140.348 262.768 140.398 262.78 140.435C262.731 140.324 262.792 140.484 262.805 140.509L263.384 139.929C263.384 139.929 263.273 139.904 263.211 139.879C263.1 139.842 263.261 139.904 263.211 139.879C263.187 139.867 263.162 139.855 263.125 139.842C263.014 139.781 262.916 139.719 262.805 139.645C262.595 139.509 262.398 139.349 262.176 139.226C261.991 139.127 261.818 139.016 261.646 138.892C261.473 138.769 261.301 138.633 261.103 138.522C260.882 138.411 260.586 138.461 260.462 138.695C260.351 138.905 260.401 139.213 260.635 139.337C260.832 139.435 261.005 139.571 261.177 139.707C261.35 139.842 261.547 139.941 261.732 140.052C262.188 140.324 262.583 140.718 263.125 140.83C263.285 140.867 263.458 140.83 263.581 140.706C263.692 140.595 263.754 140.41 263.705 140.25C263.557 139.842 263.347 139.472 263.1 139.127C262.879 138.806 262.644 138.485 262.496 138.127C262.398 137.905 262.053 137.831 261.855 137.955C261.621 138.103 261.584 138.35 261.683 138.596V138.621Z" fill="#434040"/>
<path d="M260.031 136.326C260.031 136.326 259.982 136.326 259.957 136.326C260.019 136.326 260.019 136.326 259.957 136.326C259.908 136.326 259.859 136.326 259.809 136.338C259.723 136.338 259.624 136.338 259.538 136.338C259.341 136.338 259.144 136.326 258.946 136.301C258.564 136.264 258.194 136.215 257.812 136.215C257.615 136.215 257.405 136.363 257.356 136.56C257.307 136.77 257.393 136.968 257.566 137.091C257.59 137.103 257.603 137.116 257.627 137.128C257.64 137.128 257.701 137.165 257.627 137.128C257.566 137.091 257.627 137.128 257.652 137.153C257.677 137.177 257.689 137.177 257.701 137.19C257.775 137.251 257.849 137.325 257.923 137.387C258.083 137.535 258.244 137.696 258.392 137.844C258.7 138.152 259.02 138.461 259.402 138.683C259.612 138.806 259.92 138.744 260.043 138.51C260.167 138.275 260.105 138.004 259.871 137.868C259.797 137.819 259.723 137.77 259.649 137.72C259.575 137.671 259.698 137.757 259.649 137.72C259.637 137.708 259.612 137.696 259.6 137.683C259.563 137.646 259.526 137.622 259.489 137.585C259.316 137.436 259.168 137.288 259.008 137.128C258.7 136.832 258.404 136.511 258.046 136.264L257.812 137.14C258.638 137.14 259.452 137.338 260.278 137.19C260.524 137.153 260.672 136.844 260.598 136.61C260.512 136.351 260.278 136.24 260.019 136.289L260.031 136.326Z" fill="#434040"/>
<path d="M259.316 138.152C259.156 138.51 258.934 138.831 258.712 139.151C258.466 139.509 258.244 139.867 258.108 140.274C258.059 140.422 258.108 140.62 258.232 140.731C258.355 140.854 258.515 140.891 258.688 140.854C259.218 140.743 259.6 140.361 260.044 140.089C260.229 139.978 260.401 139.879 260.574 139.744C260.648 139.694 260.709 139.633 260.783 139.583C260.882 139.509 260.709 139.645 260.796 139.583C260.82 139.571 260.845 139.546 260.857 139.534C260.944 139.472 261.03 139.411 261.116 139.361C261.338 139.25 261.412 138.929 261.289 138.72C261.141 138.498 260.882 138.436 260.648 138.547C260.438 138.658 260.253 138.818 260.068 138.966C259.994 139.016 260.118 138.929 260.068 138.966C260.044 138.979 260.019 139.003 260.007 139.016C259.97 139.053 259.92 139.077 259.871 139.102C259.785 139.164 259.698 139.201 259.6 139.25C259.39 139.374 259.205 139.522 259.008 139.657C258.91 139.731 258.811 139.793 258.7 139.855C258.675 139.867 258.651 139.879 258.626 139.892C258.552 139.929 258.675 139.879 258.626 139.892C258.564 139.904 258.503 139.929 258.441 139.941L259.02 140.521C259.02 140.521 259.094 140.348 259.045 140.459C259.07 140.41 259.082 140.373 259.107 140.324C259.156 140.237 259.205 140.151 259.255 140.065C259.353 139.904 259.452 139.756 259.563 139.596C259.772 139.287 259.994 138.979 260.155 138.633C260.253 138.411 260.229 138.115 259.982 137.992C259.785 137.881 259.452 137.918 259.341 138.164L259.316 138.152Z" fill="#434040"/>
</g>
<defs>
<clipPath id="clip0_4728_64214">
<rect width="268" height="248" fill="white" transform="translate(0.5)"/>
</clipPath>
</defs>
</svg>
