<svg width="18" height="18" viewBox="0 0 18 18" fill="none" xmlns="http://www.w3.org/2000/svg">
<path d="M7.94542 17.4316L0.317817 9.80396C0.202247 9.68839 0.120192 9.56319 0.0716531 9.42836C0.0238842 9.29353 0 9.14907 0 8.99498C0 8.84088 0.0238842 8.69642 0.0716531 8.56159C0.120192 8.42676 0.202247 8.30156 0.317817 8.18599L7.94542 0.55838C8.1573 0.346502 8.42196 0.235556 8.73939 0.22554C9.05759 0.216294 9.33226 0.327241 9.5634 0.55838C9.79454 0.770258 9.91512 1.03491 9.92514 1.35234C9.93438 1.67055 9.82343 1.94522 9.5923 2.17636L3.92937 7.83928H16.8443C17.1717 7.83928 17.4464 7.94984 17.6683 8.17096C17.8894 8.39286 18 8.66753 18 8.99498C18 9.32242 17.8894 9.59671 17.6683 9.81783C17.4464 10.0397 17.1717 10.1507 16.8443 10.1507H3.92937L9.5923 15.8136C9.80417 16.0255 9.91512 16.2951 9.92514 16.6226C9.93438 16.95 9.82343 17.2197 9.5923 17.4316C9.38042 17.6627 9.11075 17.7783 8.78331 17.7783C8.45586 17.7783 8.17656 17.6627 7.94542 17.4316Z" fill="#1C1D24"/>
</svg>
