<svg width="200" height="200" viewBox="0 0 200 200" fill="none" xmlns="http://www.w3.org/2000/svg">
<g clip-path="url(#clip0_6378_11642)">
<path d="M138.511 0H61.4875C59.6252 0 57.8378 0.739791 56.52 2.05761L2.05761 56.522C0.739791 57.8398 0 59.6252 0 61.4875V138.511C0 140.373 0.739791 142.16 2.05761 143.476L56.522 197.94C57.8398 199.258 59.6252 199.998 61.4894 199.998H138.513C140.375 199.998 142.162 199.258 143.478 197.94L197.942 143.476C199.26 142.158 200 140.373 200 138.511V61.4875C200 59.6252 199.26 57.8378 197.942 56.522L143.478 2.05761C142.16 0.739791 140.375 0 138.513 0H138.511Z" fill="#F83116"/>
<path d="M133.093 189.986H66.9066C64.2098 189.986 61.6767 188.937 59.7691 187.031L12.9689 140.229C11.0632 138.323 10.0117 135.788 10.0117 133.091V66.9046C10.0117 64.2078 11.0612 61.6748 12.9689 59.7671L59.7691 12.967C61.6767 11.0613 64.2098 10.0098 66.9066 10.0098H133.093C135.79 10.0098 138.325 11.0593 140.231 12.967L187.031 59.7671C188.937 61.6728 189.988 64.2078 189.988 66.9046V133.091C189.988 135.788 188.939 138.321 187.031 140.229L140.231 187.029C138.325 188.935 135.79 189.986 133.093 189.986ZM66.9066 16.875C66.0445 16.875 65.2317 17.2104 64.6221 17.822L17.8219 64.6221C17.2123 65.2317 16.875 66.0425 16.875 66.9066V133.093C16.875 133.955 17.2104 134.766 17.8219 135.378L64.6221 182.18C65.2317 182.789 66.0425 183.125 66.9066 183.125H133.093C133.957 183.125 134.768 182.789 135.378 182.18L182.178 135.38C182.787 134.77 183.123 133.959 183.123 133.095V66.9086C183.123 66.0465 182.787 65.2356 182.178 64.6241L135.378 17.8239C134.768 17.2143 133.955 16.877 133.093 16.877H66.9066V16.875Z" fill="#FFD9D4"/>
<path d="M153.381 102.519L152.034 101.351C148.647 98.4179 143.476 98.7908 140.542 102.178L132.926 110.975C131.837 112.231 129.773 111.462 129.773 109.799C129.773 109.103 129.736 108.412 129.663 107.733V52.3556C129.663 48.7178 126.688 45.7429 123.05 45.7429H122.561C118.923 45.7429 115.948 48.7178 115.948 52.3556V88.3982C115.948 89.2722 115.24 89.9824 114.364 89.9824C113.399 89.9824 112.616 89.1992 112.616 88.2345V45.3759C112.616 41.8604 109.74 38.9841 106.224 38.9841H105.293C101.777 38.9841 98.9011 41.8604 98.9011 45.3759V88.5186C98.9011 89.3274 98.2442 89.9843 97.4354 89.9843C96.4056 89.9843 95.5691 89.1498 95.5691 88.1181V53.7247C95.5691 50.0869 92.5942 47.112 88.9564 47.112H88.4671C84.8293 47.112 81.8544 50.0869 81.8544 53.7247V88.3962C81.8544 89.2722 81.1442 89.9824 80.2683 89.9824C79.3055 89.9824 78.5224 89.2011 78.5224 88.2364V61.1108C78.5224 57.473 75.5474 54.498 71.9096 54.498H71.4204C67.7826 54.498 64.8076 57.473 64.8076 61.1108V108.738C64.8076 108.87 64.8135 109 64.8214 109.132C64.8135 109.353 64.8076 109.576 64.8076 109.799V136.015C64.8076 146.67 73.5253 155.388 84.1803 155.388H110.396C117.21 155.388 123.233 151.821 126.688 146.463C127.731 144.845 128.86 143.283 130.122 141.827L154.206 114.011C157.139 110.624 156.767 105.453 153.379 102.519H153.381Z" fill="#FFD9D4"/>
</g>
<defs>
<clipPath id="clip0_6378_11642">
<rect width="200" height="200" fill="white"/>
</clipPath>
</defs>
</svg>
